<svg width="16" height="16" viewBox="0 0 16 16" fill="none" xmlns="http://www.w3.org/2000/svg">
<g clip-path="url(#clip0_308_8713)">
<path d="M12.7967 1.73515L11.5167 3.01515C11.444 3.08784 11.4059 3.1888 11.4119 3.29278L11.9171 10.7163L3.06921 1.86836C3.00007 1.79922 2.88661 1.79954 2.81708 1.86907L1.86894 2.81722C1.79941 2.88675 1.79909 3.00021 1.86822 3.06934L10.7162 11.9173L3.29264 11.4121C3.19024 11.4045 3.08929 11.4426 3.01501 11.5169L1.73502 12.7968C1.62756 12.9043 1.69637 13.09 1.84761 13.0991L13.1026 13.8644C13.2044 13.8714 13.3066 13.8564 13.4024 13.8205C13.4981 13.7845 13.5851 13.7284 13.6575 13.6561C13.7299 13.5837 13.786 13.4967 13.8219 13.4009C13.8579 13.3052 13.8729 13.203 13.8659 13.1012L13.0989 1.84775C13.0883 1.69493 12.9042 1.6277 12.7967 1.73515Z" fill="white"/>
</g>
<defs>
<clipPath id="clip0_308_8713">
<rect width="16" height="16" fill="white"/>
</clipPath>
</defs>
</svg>
