<svg width="118" height="125" viewBox="0 0 118 125" fill="none" xmlns="http://www.w3.org/2000/svg">
<g clip-path="url(#clip0_516_9642)">
<path d="M117.536 27.122C110.682 20.7089 103.088 14.7316 94.139 11.6184C85.4531 8.71693 75.4242 8.48033 67.391 13.1999C63.8129 15.1931 60.8462 18.1111 58.8062 21.6435C56.7662 25.1759 55.7293 29.1907 55.8056 33.2612C56.2073 42.6256 61.1527 51.2428 66.8261 58.4654C78.2358 72.9977 96.8125 85.4503 98.3941 105.387C98.7455 109.733 98.3941 115.237 95.5197 118.799C92.8461 122.111 88.2522 122.41 84.336 121.737C79.6837 120.769 75.1747 119.217 70.918 117.118C66.2488 115.013 61.7301 112.585 57.2867 110.044C39.7739 100.055 23.2972 88.3761 8.09601 75.1769C6.27599 73.5705 4.41831 71.9392 2.61085 70.283C1.17994 69.0377 -0.953879 71.0924 0.477032 72.3999C15.187 85.8104 31.1591 97.7907 48.1741 108.176C56.7078 113.612 65.719 118.272 75.0978 122.099C82.2398 124.838 92.5826 127.628 98.0677 120.368C100.729 116.856 101.507 112.012 101.507 107.728C101.451 103.102 100.505 98.5288 98.7204 94.2544C95.1431 85.3632 88.8798 78.0659 82.403 71.1422C75.9262 64.2185 69.0353 57.5688 64.1651 49.35C59.6339 41.6045 56.3453 31.4306 61.341 23.1994C65.9726 15.5285 74.9221 12.0792 83.6582 12.5773C93.6997 13.1625 102.649 18.3802 110.168 24.6315C111.963 26.1258 113.695 27.6948 115.402 29.2888C116.82 30.6087 118.954 28.4918 117.536 27.1718V27.122Z" fill="#FFC640"/>
<path d="M100.415 6.07705C91.6285 21.7301 81.7126 36.6982 71.5456 51.5169C62.094 65.551 52.7178 79.6973 42.0738 93.0092C39.1283 96.6869 36.1075 100.273 33.0114 103.768C31.3796 105.574 29.7228 107.367 27.9906 109.123C27.2124 109.932 26.4216 110.729 25.6183 111.526C25.2292 111.925 24.8276 112.323 24.3631 112.772L23.5473 113.556C23.2306 113.83 22.9962 114.186 22.87 114.583C22.7438 114.981 22.7306 115.405 22.8318 115.81C23.1987 115.689 23.5047 115.433 23.6867 115.095C23.8686 114.757 23.9126 114.362 23.8094 113.993C23.7062 113.623 23.4638 113.307 23.1323 113.11C22.8008 112.913 22.4056 112.85 22.0285 112.934C21.7007 113.021 21.3983 113.184 21.146 113.409C20.8936 113.635 20.6983 113.916 20.5761 114.23C20.4538 114.544 20.4079 114.883 20.4422 115.218C20.4765 115.553 20.5899 115.875 20.7733 116.159C21.8904 118.014 24.0619 117.093 25.3296 115.972C28.7852 112.777 32.0619 109.398 35.1452 105.848C41.4211 98.9118 47.1197 91.5647 52.6299 84.0433C64.0898 68.4899 74.9722 52.3014 85.5785 36.1129C91.6913 26.7734 97.5907 17.2969 103.051 7.57137C103.992 5.87781 101.394 4.37104 100.452 6.05215L100.415 6.07705Z" fill="#FFC640"/>
<path d="M112.05 0.772277C97.7163 32.0866 82.2775 62.8821 65.7341 93.1587C61.0314 101.776 56.2366 110.343 51.3497 118.861C51.1483 119.206 51.0934 119.617 51.1969 120.002C51.3005 120.387 51.5541 120.716 51.902 120.916C52.2499 121.116 52.6635 121.17 53.0519 121.067C53.4403 120.965 53.7717 120.713 53.9731 120.368C71.1105 90.4814 87.1727 60.0014 102.16 28.9278C106.419 20.0864 110.603 11.2076 114.711 2.2915C115.477 0.548129 112.854 -0.971098 112.05 0.772277Z" fill="#FFC640"/>
</g>
<defs>
<clipPath id="clip0_516_9642">
<rect width="118" height="125" fill="white"/>
</clipPath>
</defs>
</svg>
