<svg width="280" height="224" viewBox="0 0 280 224" fill="none" xmlns="http://www.w3.org/2000/svg">
<g clip-path="url(#clip0_360_99335)">
<path d="M157.418 58.6129C143.145 37.3506 121.973 21.6383 97.4611 14.1158C84.968 10.2571 71.2879 8.2911 58.2564 9.76864C51.1164 10.4667 44.227 12.7668 38.1035 16.4969C32.3332 20.3409 27.1136 24.9501 22.588 30.1978C13.0561 40.6749 5.09031 52.7272 1.8722 66.6723C-1.43156 80.9592 -0.158998 96.0399 4.11142 109.973C8.38184 123.906 15.5645 136.923 23.8483 148.926C31.7364 160.501 40.888 171.165 51.135 180.724C72.0466 199.993 98.648 213.694 127.378 215.525C130.951 215.743 134.534 215.772 138.11 215.611C139.982 215.525 139.994 212.595 138.11 212.68C109.966 213.901 82.6798 202.814 61.0218 185.388C50.4866 176.811 41.0069 167.019 32.7807 156.216C24.1633 145.303 16.9185 133.378 11.2084 120.706C5.53082 107.653 2.26376 93.4511 3.05911 79.1886C3.42496 72.0774 4.92435 65.0699 7.50084 58.4298C10.094 52.0902 13.5217 46.1235 17.6936 40.6871C21.7812 35.2039 26.36 30.1031 31.3736 25.4477C36.3924 20.5918 42.4266 16.9053 49.0426 14.6531C61.5969 10.7211 75.8398 11.9178 88.5042 14.7508C112.584 20.1861 134.115 33.5868 149.599 52.7761C151.471 55.1206 153.27 57.5628 154.885 60.1027C155.925 61.6657 158.471 60.2004 157.418 58.6252V58.6129Z" fill="#FFC640"/>
<path d="M149.477 52.9715C159.021 41.542 165.384 27.7068 175.65 16.8634C180.243 11.7648 185.921 7.75543 192.267 5.12853C199.198 2.66113 206.701 2.27062 213.851 4.00511C226.981 6.89913 239.205 14.3845 248.981 23.4574C258.377 32.1559 265.784 42.772 270.7 54.5834C281.15 79.9336 278.458 109.729 264.166 133.076C251.269 154.116 229.905 167.524 208.59 178.831C187.274 190.139 164.54 200.176 145.574 215.745C143.33 217.585 141.152 219.51 139.039 221.521C137.669 222.815 139.749 224.891 141.12 223.585C159.474 206.196 182.784 195.499 204.98 184.033C226.675 172.787 248.565 160.099 263.126 139.927C271.285 128.456 276.67 115.255 278.859 101.359C281.048 87.4628 279.981 73.2496 275.742 59.8342C267.617 34.9724 248.223 13.6396 223.75 4.01732C216.686 1.04661 209.038 -0.285288 201.383 0.121986C194.334 0.732114 187.591 3.26695 181.89 7.44863C169.789 16.1551 162.594 29.3187 154.42 41.3954C152.242 44.6671 149.898 47.8257 147.397 50.859C146.173 52.2999 148.266 54.3758 149.477 52.9349V52.9715Z" fill="#FFC640"/>
</g>
<defs>
<clipPath id="clip0_360_99335">
<rect width="280" height="224" fill="white"/>
</clipPath>
</defs>
</svg>
