<svg width="17" height="16" viewBox="0 0 17 16" fill="none" xmlns="http://www.w3.org/2000/svg">
<g clip-path="url(#clip0_263_10399)">
<path d="M8.65039 0C4.23253 0 0.650391 3.58214 0.650391 8C0.650391 12.4179 4.23253 16 8.65039 16C13.0682 16 16.6504 12.4179 16.6504 8C16.6504 3.58214 13.0682 0 8.65039 0ZM11.8022 10.4589L11.2915 11.1554C11.2804 11.1705 11.2664 11.1833 11.2503 11.1931C11.2342 11.2028 11.2164 11.2093 11.1978 11.2121C11.1792 11.2149 11.1602 11.214 11.142 11.2095C11.1237 11.205 11.1066 11.1969 11.0915 11.1857L8.13789 9.03214C8.11949 9.01893 8.10453 9.00149 8.09428 8.98129C8.08402 8.96109 8.07877 8.93872 8.07896 8.91607V4C8.07896 3.92143 8.14325 3.85714 8.22182 3.85714H9.08075C9.15932 3.85714 9.22361 3.92143 9.22361 4V8.41964L11.77 10.2607C11.8343 10.3054 11.8486 10.3946 11.8022 10.4589Z" fill="#654EA3"/>
</g>
<defs>
<clipPath id="clip0_263_10399">
<rect width="16" height="16" fill="white" transform="translate(0.650391)"/>
</clipPath>
</defs>
</svg>
