<svg width="16" height="16" viewBox="0 0 16 16" fill="none" xmlns="http://www.w3.org/2000/svg">
<path d="M15.5443 12.5689L11.9309 9.28354C11.7601 9.1283 11.5357 9.0455 11.305 9.05264C11.0743 9.05977 10.8554 9.15627 10.6945 9.32176L8.56736 11.5093C8.05536 11.4115 7.02603 11.0907 5.96647 10.0338C4.90692 8.97332 4.58603 7.94132 4.49092 7.43288L6.6767 5.30487C6.84239 5.1441 6.93904 4.92516 6.94617 4.69439C6.95331 4.46362 6.87037 4.23913 6.71492 4.06843L3.43047 0.455985C3.27496 0.284747 3.05881 0.180878 2.82794 0.166438C2.59707 0.151999 2.36967 0.228126 2.19403 0.378652L0.26514 2.03287C0.111461 2.18711 0.0197347 2.39239 0.00736174 2.60976C-0.00597159 2.83198 -0.260194 8.09599 3.82158 12.1795C7.38247 15.7395 11.8429 16 13.0714 16C13.2509 16 13.3611 15.9947 13.3905 15.9929C13.6078 15.9807 13.813 15.8886 13.9665 15.7342L15.6198 13.8044C15.7709 13.6293 15.8476 13.4021 15.8335 13.1713C15.8194 12.9404 15.7156 12.7242 15.5443 12.5689Z" fill="#654EA3"/>
</svg>
