<svg width="250" height="250" viewBox="0 0 250 250" fill="none" xmlns="http://www.w3.org/2000/svg">
<path d="M233.405 135.998C235.091 118.794 240.454 102.158 249.128 87.2226C233.649 79.6794 219.992 68.8445 209.106 55.4705C198.177 42.0249 190.277 26.364 185.95 9.56389C169.682 15.2143 152.382 17.2378 135.255 15.4935C118.154 13.9481 101.597 8.65954 86.7518 0C79.223 15.5271 68.4296 29.2313 55.1152 40.1683C41.8023 51.1008 26.2994 59.0273 9.6612 63.4086C15.2926 79.7165 17.3565 97.0509 15.7121 114.231C14.0677 131.412 8.75374 148.035 0.13208 162.969C15.5958 170.578 29.2459 181.44 40.1544 194.816C51.0828 208.154 58.9846 223.722 63.3102 240.436C79.5478 234.721 96.829 232.616 113.957 234.267C131.086 235.919 147.652 241.287 162.508 250C170.048 234.481 180.84 220.78 194.146 209.836C207.452 198.892 222.956 190.963 239.599 186.591C233.961 170.364 231.849 153.113 233.405 135.998V135.998ZM124.487 131.408C122.836 131.383 121.26 130.707 120.101 129.526C118.943 128.344 118.293 126.753 118.293 125.096C118.293 123.447 118.946 121.866 120.107 120.7C121.269 119.534 122.844 118.879 124.487 118.879C126.13 118.879 127.705 119.534 128.867 120.7C130.028 121.866 130.681 123.447 130.681 125.096C130.681 126.753 130.032 128.344 128.873 129.526C127.714 130.707 126.139 131.383 124.487 131.408V131.408Z" fill="#654EA3"/>
</svg>
