<svg width="360" height="420" viewBox="0 0 360 420" fill="none" xmlns="http://www.w3.org/2000/svg">
<g clip-path="url(#clip0_1005_16961)">
<rect width="360" height="420" fill="#654EA3"/>
<path d="M228.226 230.653C231.097 201.475 240.229 173.259 255 147.93C228.642 135.136 205.386 116.76 186.848 94.078C168.238 71.2743 154.786 44.7134 147.418 16.2204C119.716 25.8035 90.2569 29.2354 61.0926 26.277C31.9715 23.656 3.77898 14.6866 -21.5005 0C-34.3208 26.3339 -52.7004 49.5763 -75.3727 68.1255C-98.0424 86.667 -124.441 100.11 -152.773 107.541C-143.184 135.199 -139.67 164.598 -142.47 193.736C-145.27 222.874 -154.319 251.067 -169 276.395C-142.668 289.301 -119.424 307.723 -100.848 330.409C-82.2392 353.03 -68.7836 379.433 -61.4178 407.78C-33.7679 398.086 -4.3407 394.516 24.8261 397.317C53.9929 400.118 82.2022 409.222 107.501 424C120.34 397.68 138.717 374.443 161.374 355.882C184.032 337.321 210.434 323.873 238.773 316.459C229.172 288.937 225.576 259.68 228.226 230.653V230.653ZM42.7566 222.868C39.9445 222.825 37.2619 221.678 35.2885 219.675C33.315 217.672 32.209 214.974 32.2093 212.162C32.2093 209.366 33.3206 206.684 35.2986 204.707C37.2766 202.73 39.9593 201.619 42.7566 201.619C45.5539 201.619 48.2366 202.73 50.2146 204.707C52.1926 206.684 53.3039 209.366 53.3039 212.162C53.3042 214.974 52.1981 217.672 50.2247 219.675C48.2512 221.678 45.5687 222.825 42.7566 222.868V222.868Z" fill="#FFC640"/>
<path d="M123.308 232.236H155.394V252H89.27V237.238L114.28 215.4C122.495 208.161 127.619 203.363 129.652 201.004C131.767 198.645 132.824 196.205 132.824 193.684C132.824 191.244 131.97 189.17 130.262 187.462C128.635 185.673 126.033 184.778 122.454 184.778C115.785 184.778 112.003 188.641 111.108 196.368H90.246C90.5713 186.852 93.784 179.247 99.884 173.554C106.065 167.861 113.914 165.014 123.43 165.014C132.702 165.014 140.063 167.698 145.512 173.066C151.043 178.434 153.808 184.981 153.808 192.708C153.808 195.311 153.401 197.832 152.588 200.272C151.775 202.631 150.921 204.664 150.026 206.372C149.131 207.999 147.423 210.113 144.902 212.716C142.462 215.237 140.51 217.149 139.046 218.45C137.663 219.67 135.142 221.907 131.482 225.16L123.552 232.114L123.308 232.236ZM173.516 177.092C180.266 169.04 189.498 165.014 201.21 165.014C212.922 165.014 222.153 169.04 228.904 177.092C235.654 185.144 239.03 195.88 239.03 209.3C239.03 222.72 235.654 233.456 228.904 241.508C222.153 249.56 212.922 253.586 201.21 253.586C189.498 253.586 180.266 249.56 173.516 241.508C166.765 233.456 163.39 222.72 163.39 209.3C163.39 195.88 166.765 185.144 173.516 177.092ZM188.4 227.722C191.084 231.789 195.354 233.822 201.21 233.822C207.066 233.822 211.336 231.789 214.02 227.722C216.704 223.574 218.046 217.433 218.046 209.3C218.046 201.167 216.704 195.067 214.02 191C211.336 186.852 207.066 184.778 201.21 184.778C195.354 184.778 191.084 186.852 188.4 191C185.716 195.067 184.374 201.167 184.374 209.3C184.374 217.433 185.716 223.574 188.4 227.722ZM293.466 185.51V206.128H313.596V225.892H293.466V246.632H272.726V225.892H252.474V206.128H272.726V185.51H293.466Z" fill="white"/>
</g>
<defs>
<clipPath id="clip0_1005_16961">
<rect width="360" height="420" fill="white"/>
</clipPath>
</defs>
</svg>
