<svg width="20" height="20" viewBox="0 0 20 20" fill="none" xmlns="http://www.w3.org/2000/svg">
<path d="M18.6724 10.8798C18.8073 9.50352 19.2363 8.17264 19.9302 6.97781C18.6919 6.37435 17.5994 5.50756 16.7285 4.43764C15.8542 3.36199 15.2222 2.10912 14.876 0.765111C13.5746 1.21714 12.1906 1.37902 10.8204 1.23948C9.45232 1.11585 8.12776 0.692763 6.94014 0C6.33784 1.24217 5.47437 2.3385 4.40922 3.21346C3.34418 4.08806 2.10395 4.72218 0.772896 5.07269C1.22341 6.37732 1.38852 7.76407 1.25697 9.13848C1.12542 10.513 0.7003 11.8428 0.0105667 13.0375C1.24766 13.6462 2.33967 14.5152 3.21235 15.5853C4.08662 16.6523 4.71877 17.8978 5.06482 19.2349C6.36382 18.7777 7.74632 18.6093 9.11656 18.7414C10.4869 18.8735 11.8122 19.303 13.0006 20C13.6038 18.7585 14.4672 17.6624 15.5317 16.7869C16.5962 15.9114 17.8365 15.277 19.1679 14.9273C18.7169 13.6291 18.5479 12.249 18.6724 10.8798ZM9.95896 10.5126C9.82688 10.5106 9.7008 10.4566 9.60808 10.3621C9.51544 10.2675 9.46344 10.1402 9.46344 10.0077C9.46344 9.87576 9.51568 9.74928 9.60856 9.656C9.70152 9.56272 9.82752 9.51032 9.95896 9.51032C10.0904 9.51032 10.2164 9.56272 10.3094 9.656C10.4022 9.74928 10.4545 9.87576 10.4545 10.0077C10.4545 10.1402 10.4026 10.2675 10.3098 10.3621C10.2171 10.4566 10.0911 10.5106 9.95896 10.5126Z" fill="#FFF"/>
</svg>
