<svg width="135" height="137" viewBox="0 0 135 137" fill="none" xmlns="http://www.w3.org/2000/svg">
<path d="M45.12 8.11052C43.3863 34.8586 35.8823 59.673 17.0972 78.458C12.0641 83.4912 7.26161 88.7259 1.80681 93.3415C-1.04394 95.7537 1.53876 93.227 2.73702 92.295C16.1781 81.8408 39.4417 86.9489 48.8408 100.376C54.2315 108.077 56.9979 117.536 61.8638 125.55C63.5761 128.37 64.1432 132.158 65.5266 135.201C66.6667 137.709 65.0033 132.946 65.0033 131.538C65.0033 109.638 84.8067 78.84 110.061 84.0393C116.839 85.4349 124.159 86.5358 130.467 89.5044C132.174 90.3076 136.898 91.8299 132.502 91.8299C123.255 91.8299 114.2 80.6593 107.909 75.3186C104.21 72.1776 101.016 69.8615 97.9097 66.1908C93.7068 61.2238 93.859 56.445 92.7353 50.3772C91.068 41.3735 93.4016 34.4707 99.5375 27.9939C101.276 26.1592 110.329 21.0539 107.386 23.3428C99.4545 29.5119 90.8373 33.326 80.9332 35.0868C69.3934 37.1383 56.3209 32.565 49.8873 22.7614C46.4531 17.5284 43.3287 10.2603 43.027 3.92455C42.857 0.355735 42.4866 -0.413584 45.12 2.87806" stroke="#FFC640" stroke-linecap="round"/>
</svg>
