<svg width="146" height="125" viewBox="0 0 146 125" fill="none" xmlns="http://www.w3.org/2000/svg">
<g clip-path="url(#clip0_516_9649)">
<path d="M83.269 0.584808C66.6516 -2.27501 49.7095 5.49849 39.1289 18.3417C27.3019 32.7707 24.3549 52.4515 27.3668 70.4813C30.3788 88.5112 39.4664 106.593 55.3179 116.485C71.8575 126.885 92.7332 127.327 110.61 120.229C126.28 114.003 142.222 101.458 145.403 83.9355C145.776 81.8898 145.963 79.8144 145.961 77.7349C145.961 77.3212 145.797 76.9244 145.505 76.6319C145.213 76.3393 144.816 76.175 144.403 76.175C143.99 76.175 143.594 76.3393 143.302 76.6319C143.009 76.9244 142.845 77.3212 142.845 77.7349C142.845 94.6338 129.058 107.88 114.855 114.925C98.4974 123.05 78.7641 124.662 62.0298 116.641C46.0225 108.946 36.2598 93.4119 31.8977 76.5649C27.5356 59.718 28.5612 40.6352 37.8436 25.5172C46.9832 10.7502 64.9119 0.584808 82.4382 3.60062C84.3855 3.8996 85.2424 0.935786 83.269 0.584808Z" fill="#FFC640"/>
<path d="M1.92137 83.4803C22.7451 77.2233 43.3092 70.2298 63.6137 62.4996C69.4039 60.2898 75.168 58.0149 80.9063 55.6751C82.7368 54.9341 81.9449 51.9183 80.0754 52.6723C59.97 60.8877 39.5573 68.3189 18.8374 74.9658C12.9434 76.8637 7.02778 78.6966 1.0905 80.4645C0.691097 80.5748 0.351819 80.8395 0.147307 81.2003C-0.0572054 81.5611 -0.1102 81.9884 -1.97291e-05 82.3883C0.110161 82.7883 0.374492 83.128 0.734823 83.3328C1.09515 83.5375 1.52197 83.5906 1.92137 83.4803Z" fill="#FFC640"/>
<path d="M16.0981 111.624C38.8654 105.895 61.2165 98.6203 82.9964 89.8501C89.1154 87.3976 95.2041 84.8237 101.263 82.1286C103.093 81.3096 101.509 78.6188 99.6917 79.4247C78.4476 88.9048 56.5872 96.935 34.2605 103.46C27.9597 105.289 21.6286 107.022 15.2672 108.66C14.8878 108.786 14.5712 109.053 14.383 109.406C14.1948 109.759 14.1494 110.171 14.2561 110.557C14.3629 110.943 14.6136 111.273 14.9564 111.478C15.2993 111.684 15.708 111.75 16.0981 111.663V111.624Z" fill="#FFC640"/>
</g>
<defs>
<clipPath id="clip0_516_9649">
<rect width="146" height="125" fill="white"/>
</clipPath>
</defs>
</svg>
