<svg width="82" height="125" viewBox="0 0 82 125" fill="none" xmlns="http://www.w3.org/2000/svg">
<g clip-path="url(#clip0_516_9656)">
<path d="M2.53653 23.3689C3.82079 19.1522 7.66287 16.341 10.9484 13.7123C14.5158 10.7288 18.3779 8.1187 22.4747 5.92259C30.1802 1.96336 38.8704 1.16937 46.5545 5.58997C50.0866 7.56861 53.0418 10.4381 55.1273 13.9141C57.2128 17.3901 58.3564 21.3521 58.4446 25.4076C58.5517 34.3346 54.0247 42.8217 48.2776 49.3775C41.9954 56.5556 33.9795 61.9204 26.4238 67.6179C19.446 72.9612 11.5906 78.7552 7.90902 86.9848C4.33449 94.9676 6.00403 104.152 11.1946 111.084C16.5457 118.197 24.9897 122.414 33.5621 124.184C43.0014 126.116 52.4193 124.678 60.4031 119.152C68.098 113.787 73.5561 106.116 78.2436 98.1436C79.4637 96.0728 80.6409 93.9805 81.8182 91.8882C81.9725 91.5948 82.0079 91.253 81.917 90.934C81.8261 90.615 81.6159 90.3435 81.3303 90.1761C81.0446 90.0087 80.7055 89.9583 80.3837 90.0354C80.0619 90.1125 79.7821 90.3111 79.6028 90.59C74.8832 98.9805 70.0565 107.586 62.779 114.034C59.4609 117.057 55.5854 119.401 51.3705 120.933C46.5655 122.511 41.4526 122.909 36.4624 122.092C27.6224 120.772 18.4078 116.727 13.0354 109.217C10.4349 105.694 8.88376 101.505 8.56185 97.135C8.36038 92.7353 9.60076 88.3904 12.0936 84.7638C14.7431 81.0045 17.9226 77.6506 21.5329 74.8067C25.2251 71.6844 29.1314 68.841 33.0056 65.9655C40.4971 60.4183 47.9886 54.6779 53.4253 47.0385C58.4125 40.0749 61.8586 31.4054 60.8312 22.7037C60.3382 18.8139 58.9704 15.0871 56.8309 11.8046C54.6915 8.52218 51.8363 5.7698 48.4809 3.7552C44.9686 1.63188 41.007 0.367155 36.9168 0.0633256C32.8265 -0.240504 28.7223 0.425091 24.9362 2.00628C20.7372 3.7356 16.78 6.00421 13.1638 8.7552C9.64277 11.3625 5.82209 14.12 2.98602 17.4676C1.66472 18.9859 0.670083 20.7611 0.06433 22.6822C-0.417267 24.2702 2.05493 24.9462 2.53653 23.3689Z" fill="#FFC640"/>
<path d="M14.4693 57.4892C31.2218 54.9284 47.8851 51.7059 64.4591 47.8218C66.0752 47.4356 65.3902 44.957 63.7849 45.3325C47.2465 49.2381 30.5797 52.457 13.7844 54.9892C12.147 55.236 12.8426 57.7145 14.4693 57.4677V57.4892Z" fill="#FFC640"/>
<path d="M13.4529 72.7143C21.5116 74.2808 29.7737 72.5855 37.7147 71.1048C45.9982 69.5741 54.2032 67.6964 62.3297 65.4718C62.4927 65.4267 62.6453 65.3499 62.7787 65.2457C62.9121 65.1415 63.0237 65.0119 63.1072 64.8645C63.1907 64.717 63.2444 64.5545 63.2652 64.3862C63.2861 64.218 63.2736 64.0473 63.2287 63.8838C63.1837 63.7204 63.107 63.5674 63.0031 63.4336C62.8992 63.2999 62.77 63.188 62.6229 63.1043C62.4758 63.0206 62.3137 62.9668 62.1459 62.9459C61.9781 62.925 61.8078 62.9374 61.6447 62.9825C53.8536 65.1284 46.0053 66.9453 38.1 68.4332C30.3409 69.9031 22.0467 71.7701 14.1806 70.225C12.5646 69.9139 11.8797 72.3709 13.4957 72.7143H13.4529Z" fill="#FFC640"/>
</g>
<defs>
<clipPath id="clip0_516_9656">
<rect width="82" height="125" fill="white"/>
</clipPath>
</defs>
</svg>
