<svg width="160" height="38" viewBox="0 0 160 38" fill="none" xmlns="http://www.w3.org/2000/svg">
<path fill-rule="evenodd" clip-rule="evenodd" d="M85.804 7.40291C85.804 5.42691 84.1743 3.87695 82.1015 3.87695C80.1096 3.87695 78.4512 5.42691 78.4512 7.40291C78.4512 9.40668 80.1096 10.9559 82.1015 10.9559C84.1743 10.9559 85.804 9.40668 85.804 7.40291Z" fill="#FDDA24"/>
<path fill-rule="evenodd" clip-rule="evenodd" d="M95.2869 7.40291C95.2869 5.42691 93.6285 3.87695 91.5829 3.87695C89.5645 3.87695 87.9341 5.42691 87.9341 7.40291C87.9341 9.40668 89.5645 10.9559 91.5829 10.9559C93.6285 10.9559 95.2869 9.40668 95.2869 7.40291Z" fill="#FDDA24"/>
<path fill-rule="evenodd" clip-rule="evenodd" d="M60.167 19.4202L64.839 13.9964C65.1974 13.65 64.9766 13.1685 64.479 13.1685H60.9686C60.6366 13.1685 60.3054 13.3029 60.0286 13.623L56.8214 17.6846V13.8905C56.8214 13.4089 56.5734 13.1685 56.0758 13.1685H53.5326C53.0335 13.1685 52.7847 13.4089 52.7847 13.8905V26.4458C52.7847 26.9259 53.0335 27.1678 53.5326 27.1678H56.0758C56.5734 27.1678 56.8214 26.9259 56.8214 26.4458V21.8778L61.051 26.6855C61.3006 26.9807 61.5486 27.1678 61.9078 27.1678H65.6126C66.083 27.1678 66.2486 26.7125 66.0005 26.3654L60.167 19.4202Z" fill="#2396FD"/>
<path fill-rule="evenodd" clip-rule="evenodd" d="M88.1304 13.1714H85.4216C84.896 13.1714 84.6479 13.4111 84.6479 13.8919V26.448C84.6479 26.9289 84.896 27.17 85.4216 27.17H88.1304C88.656 27.17 88.876 26.9289 88.876 26.448V13.8919C88.876 13.4111 88.656 13.1714 88.1304 13.1714Z" fill="#2396FD"/>
<mask id="mask0" mask-type="alpha" maskUnits="userSpaceOnUse" x="147" y="13" width="13" height="15">
<path fill-rule="evenodd" clip-rule="evenodd" d="M160 13.1714V27.17H147.7V13.1714H160V13.1714Z" fill="white"/>
</mask>
<g mask="url(#mask0)">
<path fill-rule="evenodd" clip-rule="evenodd" d="M154.113 20.0166H151.928V16.4059H154.058C156.904 16.4059 157.099 20.0166 154.113 20.0166ZM154.417 13.1728L148.474 13.1714C147.949 13.1714 147.7 13.4111 147.7 13.8919V26.4487C147.7 26.9289 147.949 27.17 148.474 27.17H151.183C151.708 27.17 151.928 26.9289 151.928 26.4487V23.115H154.251C157.513 23.115 160 21.3852 160 18.2597C160 15.1284 157.458 13.1728 154.417 13.1728Z" fill="#2396FD"/>
</g>
<path fill-rule="evenodd" clip-rule="evenodd" d="M131.62 13.1714H121.077C120.579 13.1714 120.329 13.3855 120.329 13.8919V16.3254C120.329 16.8325 120.579 17.0737 121.077 17.0737H124.233V26.448C124.233 26.9289 124.482 27.17 125.007 27.17H127.717C128.242 27.17 128.463 26.9289 128.463 26.448V17.0737H131.62C132.116 17.0737 132.365 16.8325 132.365 16.3254V13.8919C132.365 13.3855 132.116 13.1714 131.62 13.1714Z" fill="#2396FD"/>
<path fill-rule="evenodd" clip-rule="evenodd" d="M99.655 24.0455H96.1718V21.4279H99.655C101.783 21.4279 101.921 24.0455 99.655 24.0455ZM96.1718 16.2978H98.7974C100.484 16.2978 100.511 18.4616 98.7974 18.4616H96.1718V16.2978ZM102.752 19.5308C105.321 17.1529 103.608 13.1724 99.6548 13.1724L93.0212 13.1709C92.4949 13.1709 92.2461 13.4106 92.2461 13.8914V26.4475C92.2461 26.9284 92.4949 27.1695 93.0212 27.1695L100.319 27.1702C105.488 27.1702 106.869 21.4279 102.752 19.5308Z" fill="#2396FD"/>
<path fill-rule="evenodd" clip-rule="evenodd" d="M80.692 13.1685L77.4024 13.1706L71.3843 21.2266V13.8897C71.3843 13.4089 71.1635 13.1685 70.6379 13.1685H68.1696C67.644 13.1685 67.396 13.4089 67.396 13.8897V26.4451C67.396 26.9259 67.644 27.1671 68.1696 27.1671H71.3768L77.478 19.2718V26.4451C77.478 26.9259 77.6981 27.1671 78.2237 27.1671H80.692C81.2176 27.1671 81.4656 26.9259 81.4656 26.4451V13.8897C81.4656 13.4089 81.2176 13.1685 80.692 13.1685Z" fill="#2396FD"/>
<path fill-rule="evenodd" clip-rule="evenodd" d="M113.54 23.9137C111.381 23.9137 109.638 22.2571 109.638 20.1736C109.638 18.1165 111.381 16.4336 113.512 16.4336C114.756 16.4336 116.002 16.9685 116.667 17.556C116.97 17.8228 117.192 18.0098 117.663 17.556L119.295 16.0075C119.517 15.7934 119.6 15.4456 119.212 15.0984C117.635 13.6829 115.864 12.7476 113.54 12.7476C109.278 12.7476 105.819 16.0601 105.819 20.1736C105.819 24.2879 109.278 27.6267 113.512 27.6267C115.864 27.6267 117.635 26.6921 119.212 25.2759C119.6 24.9295 119.517 24.5809 119.295 24.3682L117.663 22.819C117.192 22.3645 116.97 22.5516 116.667 22.819C116.002 23.4066 114.756 23.9137 113.54 23.9137Z" fill="#2396FD"/>
<path fill-rule="evenodd" clip-rule="evenodd" d="M137.389 21.668L138.863 17.5516H138.867L140.341 21.668H137.389ZM146.324 26.4736L141.356 13.7041C141.242 13.3672 140.965 13.1714 140.538 13.1714H137.191C136.764 13.1714 136.488 13.3672 136.372 13.7041L131.406 26.4736C131.255 26.858 131.481 27.1707 131.905 27.1707H134.955C135.21 27.1707 135.486 26.9815 135.569 26.7476L136.239 24.8739H136.242H141.486H141.488L142.16 26.7476C142.243 26.9815 142.519 27.1707 142.774 27.1707H145.824C146.248 27.1707 146.474 26.858 146.324 26.4736Z" fill="#2396FD"/>
<mask id="mask1" mask-type="alpha" maskUnits="userSpaceOnUse" x="17" y="0" width="7" height="15">
<path fill-rule="evenodd" clip-rule="evenodd" d="M17.7915 0L23.0439 0V14.4627H17.7915V0H17.7915Z" fill="white"/>
</mask>
<g mask="url(#mask1)">
<path fill-rule="evenodd" clip-rule="evenodd" d="M20.4181 14.4625C18.9667 14.4625 17.7915 13.3196 17.7915 11.9099V2.55137C17.7915 1.14234 18.9667 -0.000488281 20.4181 -0.000488281C21.8687 -0.000488281 23.0439 1.14234 23.0439 2.55137V11.9099C23.0439 13.3196 21.8687 14.4625 20.4181 14.4625Z" fill="#2396FD"/>
</g>
<mask id="mask2" mask-type="alpha" maskUnits="userSpaceOnUse" x="0" y="12" width="15" height="9">
<path fill-rule="evenodd" clip-rule="evenodd" d="M0 20.5573V12.5591L14.4123 12.5591V20.5573H0H0Z" fill="white"/>
</mask>
<g mask="url(#mask2)">
<path fill-rule="evenodd" clip-rule="evenodd" d="M14.2831 18.793C13.8344 20.1335 12.353 20.8671 10.9736 20.4317L1.81513 17.5393C0.435803 17.1039 -0.318401 15.6642 0.128868 14.323C0.576888 12.9818 2.05903 12.2489 3.43836 12.685L12.5961 15.5767C13.977 16.0121 14.7312 17.4525 14.2831 18.793Z" fill="#2396FD"/>
</g>
<path fill-rule="evenodd" clip-rule="evenodd" d="M26.554 18.7943C27.0028 20.1347 28.4834 20.8684 29.8628 20.4323L39.0213 17.5406C40.4006 17.1052 41.1556 15.6648 40.7068 14.3243C40.2595 12.9839 38.7781 12.2502 37.3981 12.6856L28.2395 15.578C26.8602 16.0134 26.106 17.4538 26.554 18.7943Z" fill="#2396FD"/>
<path fill-rule="evenodd" clip-rule="evenodd" d="M7.87521 37.513C6.7015 36.6852 6.44034 35.0888 7.29286 33.9474L12.9513 26.375C13.803 25.2343 15.4458 24.9813 16.618 25.8097C17.7924 26.6382 18.0536 28.234 17.2003 29.3739L11.5427 36.9478C10.6909 38.087 9.04742 38.3408 7.87521 37.513Z" fill="#2396FD"/>
<path fill-rule="evenodd" clip-rule="evenodd" d="M32.9625 37.513C34.1362 36.6852 34.3966 35.0888 33.5441 33.9474L27.8865 26.375C27.0347 25.2343 25.392 24.9813 24.2183 25.8097C23.0453 26.6382 22.7841 28.234 23.6367 29.3739L29.2951 36.9478C30.1468 38.087 31.7903 38.3408 32.9625 37.513Z" fill="#2396FD"/>
</svg>
