<svg width="234" height="30" viewBox="0 0 234 30" fill="none" xmlns="http://www.w3.org/2000/svg">
<g clip-path="url(#clip0_463_686)">
<path d="M15.6452 22.9766H10.4746V11.1483H5.1706V22.9766H0V6.25418H15.6452V22.9766Z" fill="#1D1D1B"/>
<path d="M24.7966 5.7971C25.7151 5.77396 26.6261 5.96894 27.4551 6.36613C28.2842 6.76331 29.0078 7.35144 29.5669 8.0825V6.19844H34.7486V22.9766H29.5669V21.1817C29.0036 21.8988 28.281 22.4739 27.4565 22.861C26.6321 23.2482 25.7288 23.4366 24.8188 23.4114C23.7943 23.4279 22.7792 23.2142 21.8479 22.786C20.9166 22.3577 20.0927 21.7257 19.4369 20.9365C17.9549 19.1739 17.1853 16.9187 17.2797 14.6154C17.1912 12.3144 17.9647 10.0635 19.4481 8.30546C20.0976 7.51512 20.9147 6.87988 21.8399 6.44597C22.7651 6.01206 23.7752 5.7904 24.7966 5.7971ZM26.042 10.7469C25.5705 10.7345 25.1017 10.8225 24.6666 11.0051C24.2315 11.1876 23.84 11.4606 23.5178 11.806C22.8305 12.5625 22.4671 13.5594 22.5059 14.5819C22.4612 15.6121 22.825 16.6181 23.5178 17.3802C23.8409 17.7235 24.2329 17.9945 24.668 18.1751C25.103 18.3557 25.5713 18.4419 26.042 18.4281C26.6768 18.4359 27.3024 18.2743 27.8544 17.9599C28.3935 17.6402 28.8296 17.172 29.111 16.6109C29.4305 15.9837 29.5873 15.2859 29.5669 14.5819C29.6099 13.5608 29.2504 12.5636 28.5661 11.806C28.244 11.4606 27.8524 11.1876 27.4173 11.0051C26.9822 10.8225 26.5135 10.7345 26.042 10.7469Z" fill="#1D1D1B"/>
<path d="M46.7021 5.79711C47.7195 5.78484 48.7267 6.0007 49.6502 6.42891C50.5737 6.85711 51.39 7.48683 52.0395 8.27202C53.5468 10.0196 54.3409 12.2729 54.2634 14.5819C54.3525 16.8845 53.5835 19.1378 52.1062 20.903C51.4508 21.7007 50.6247 22.3404 49.6893 22.7746C48.7538 23.2088 47.7329 23.4264 46.7021 23.4114C45.7922 23.4358 44.8892 23.2469 44.0649 22.8598C43.2407 22.4728 42.5179 21.8981 41.9541 21.1817V30H36.7612V6.19844H41.9318V8.0825C42.4927 7.35345 43.2167 6.76677 44.0453 6.36979C44.8739 5.97281 45.784 5.77664 46.7021 5.79711ZM45.4678 10.7469C44.9963 10.7345 44.5276 10.8225 44.0925 11.0051C43.6574 11.1876 43.2658 11.4606 42.9437 11.806C42.6013 12.1793 42.3357 12.6166 42.1621 13.093C41.9884 13.5693 41.9102 14.0753 41.9318 14.5819C41.9072 15.0923 41.984 15.6025 42.1577 16.0828C42.3314 16.5632 42.5986 17.0042 42.9437 17.3802C43.2752 17.7125 43.6687 17.9762 44.1018 18.1561C44.5349 18.3359 44.9991 18.4285 45.4678 18.4285C45.9366 18.4285 46.4008 18.3359 46.8339 18.1561C47.267 17.9762 47.6605 17.7125 47.992 17.3802C48.6818 16.617 49.0417 15.6107 48.9927 14.5819C49.0358 13.5608 48.6763 12.5636 47.992 11.806C47.6698 11.4606 47.2783 11.1876 46.8432 11.0051C46.4081 10.8225 45.9393 10.7345 45.4678 10.7469Z" fill="#1D1D1B"/>
<path d="M63.2035 5.79712C64.1235 5.77489 65.0358 5.97021 65.8664 6.36726C66.6971 6.76431 67.4229 7.35192 67.9849 8.08251V6.19845H73.1555V22.9766H67.9849V21.1817C67.4211 21.8982 66.6983 22.4728 65.874 22.8598C65.0497 23.2469 64.1467 23.4358 63.2368 23.4114C62.2042 23.4281 61.1811 23.2113 60.2436 22.777C59.3061 22.3428 58.4782 21.7022 57.8216 20.903C56.3444 19.1378 55.5754 16.8845 55.6644 14.582C55.5869 12.2729 56.3811 10.0196 57.8883 8.27203C58.5355 7.48978 59.3482 6.86182 60.2676 6.43373C61.1869 6.00565 62.1898 5.78818 63.2035 5.79712ZM64.4934 10.7469C64.0219 10.7345 63.5531 10.8225 63.118 11.0051C62.6829 11.1876 62.2914 11.4606 61.9692 11.806C61.2849 12.5636 60.9254 13.5608 60.9685 14.582C60.9195 15.6107 61.2794 16.617 61.9692 17.3802C62.2923 17.7236 62.6843 17.9945 63.1194 18.1751C63.5544 18.3557 64.0227 18.4419 64.4934 18.4281C65.1286 18.4386 65.7548 18.2769 66.3058 17.9599C66.8467 17.6389 67.2861 17.1713 67.5735 16.6109C67.8878 15.9819 68.0443 15.2854 68.0294 14.582C68.051 14.0753 67.9728 13.5693 67.7991 13.093C67.6255 12.6167 67.3599 12.1793 67.0175 11.806C66.6954 11.4606 66.3038 11.1876 65.8687 11.0051C65.4336 10.8225 64.9649 10.7345 64.4934 10.7469Z" fill="#1D1D1B"/>
<path d="M83.3967 5.79711C85.4917 5.74871 87.5335 6.46142 89.1455 7.8038C90.7632 9.15254 91.7826 11.0884 91.981 13.1884H86.6547C86.5431 12.7028 86.3226 12.2491 86.0098 11.8618C85.7157 11.4905 85.3334 11.1991 84.8978 11.0145C84.4424 10.8148 83.9493 10.716 83.4523 10.7246C82.8148 10.7075 82.1858 10.8738 81.6398 11.204C81.1175 11.5389 80.695 12.0087 80.4166 12.5641C80.1201 13.1867 79.9716 13.8698 79.983 14.5597C79.9344 15.5824 80.2809 16.5846 80.9504 17.3579C81.2619 17.701 81.6439 17.9724 82.07 18.1533C82.4962 18.3342 82.9564 18.4203 83.4189 18.4058C84.1666 18.4188 84.8977 18.1836 85.4983 17.7369C86.0823 17.2869 86.4787 16.6352 86.6102 15.9086H91.9365C91.7443 18.0085 90.7333 19.9475 89.1233 21.3044C87.556 22.6751 85.5432 23.4244 83.4634 23.4114C82.3086 23.4423 81.1598 23.2346 80.0885 22.8011C79.0172 22.3677 78.0464 21.7178 77.2365 20.8919C76.4204 20.0688 75.7798 19.088 75.3536 18.009C74.9273 16.93 74.7243 15.7755 74.7568 14.6154C74.7267 13.4593 74.9287 12.3088 75.3509 11.2325C75.773 10.1562 76.4067 9.17598 77.2142 8.35007C78.0129 7.51938 78.9746 6.86366 80.0387 6.42426C81.1028 5.98486 82.2462 5.77132 83.3967 5.79711Z" fill="#1D1D1B"/>
<path d="M129.042 22.9766H123.872V11.1483H120.614L118.757 22.9766H111.485V18.0379H114.287L116.199 6.19846H129.042V22.9766Z" fill="#1D1D1B"/>
<path d="M146.311 22.9766H141.14V17.9376H139.439L136.203 22.9766H130.455L133.79 17.9376H131.567V6.19846H146.322L146.311 22.9766ZM136.57 11.0814V13.8239H141.14V11.0814H136.57Z" fill="#1D1D1B"/>
<path d="M114.698 15.8528C114.895 13.8474 115.521 11.9081 116.533 10.1672C114.727 9.28793 113.133 8.02495 111.863 6.466C110.587 4.89869 109.666 3.07316 109.161 1.11483C107.262 1.77348 105.244 2.00935 103.245 1.80602C101.249 1.62588 99.3175 1.00941 97.5852 0C96.7067 1.80994 95.4472 3.40739 93.8935 4.68227C92.34 5.95664 90.531 6.8806 88.5895 7.3913C89.2466 9.29226 89.4875 11.3129 89.2956 13.3155C89.1037 15.3182 88.4836 17.2559 87.4775 18.9967C89.282 19.8837 90.8748 21.1498 92.1478 22.709C93.423 24.2638 94.3451 26.0785 94.8498 28.0268C96.7446 27.3605 98.7611 27.1152 100.76 27.3077C102.759 27.5002 104.692 28.1259 106.425 29.1416C107.305 27.3326 108.564 25.7356 110.117 24.4598C111.67 23.1841 113.479 22.2598 115.421 21.7503C114.763 19.8587 114.517 17.8478 114.698 15.8528ZM101.989 15.3177C101.796 15.3148 101.612 15.236 101.477 15.0983C101.342 14.9606 101.266 14.7752 101.266 14.5819C101.266 14.3898 101.342 14.2054 101.477 14.0695C101.613 13.9336 101.797 13.8573 101.989 13.8573C102.18 13.8573 102.364 13.9336 102.5 14.0695C102.635 14.2054 102.711 14.3898 102.711 14.5819C102.711 14.7752 102.636 14.9606 102.5 15.0983C102.365 15.236 102.181 15.3148 101.989 15.3177Z" fill="#654EA3"/>
<path d="M165.014 6.68895H161.367V8.46152H165.014V11.5384H160.844V6.19843H165.014V6.68895ZM161.367 8.9186V11.1483H164.492V8.9186H161.367Z" fill="#654EA3"/>
<path d="M167.55 13.7681H166.982L168.328 10.9253L166.104 6.19843H166.66L168.606 10.3456L170.552 6.19843H171.108L167.55 13.7681Z" fill="#654EA3"/>
<path d="M174.244 8.78482L176.223 11.5384H175.6L173.932 9.20846L172.275 11.5384H171.642L173.621 8.78482L171.764 6.19843H172.353L173.899 8.42808L175.444 6.25417H176.078L174.244 8.78482Z" fill="#654EA3"/>
<path d="M180.615 6.68895H177.824V11.5384H177.302V6.19843H180.637L180.615 6.68895Z" fill="#654EA3"/>
<path d="M183.729 6.08693C184.206 6.08076 184.674 6.21655 185.074 6.47712C185.469 6.72712 185.782 7.08755 185.975 7.51391V6.19841H186.497V11.5384H185.975V10.2229C185.796 10.5911 185.532 10.9105 185.203 11.1536C184.875 11.3967 184.493 11.5564 184.089 11.6189C183.686 11.6814 183.273 11.6448 182.887 11.5123C182.501 11.3799 182.152 11.1555 181.872 10.8584C181.383 10.3323 181.116 9.63732 181.127 8.91859C181.113 8.55481 181.172 8.19199 181.3 7.85129C181.428 7.5106 181.622 7.19884 181.872 6.9342C182.104 6.669 182.389 6.4563 182.709 6.31022C183.029 6.16414 183.377 6.08803 183.729 6.08693ZM185.363 7.20176C185.163 6.99048 184.922 6.82371 184.653 6.71231C184.385 6.6009 184.097 6.54736 183.806 6.55516C183.518 6.54753 183.231 6.6012 182.965 6.71264C182.698 6.82408 182.458 6.99077 182.261 7.20176C182.042 7.42762 181.873 7.69739 181.766 7.9933C181.659 8.28922 181.615 8.60457 181.638 8.91859C181.626 9.21977 181.675 9.52027 181.782 9.80195C181.889 10.0836 182.052 10.3406 182.261 10.5574C182.676 10.9626 183.233 11.1893 183.812 11.1893C184.391 11.1893 184.948 10.9626 185.363 10.5574C185.572 10.3406 185.735 10.0836 185.842 9.80195C185.949 9.52027 185.998 9.21977 185.986 8.91859C186.004 8.61005 185.958 8.30108 185.851 8.01128C185.744 7.72149 185.578 7.4572 185.363 7.2352V7.20176Z" fill="#654EA3"/>
<path d="M192.869 11.5384H192.369V6.68895H189.844L189.033 11.5384H187.632V11.0479H188.588L189.377 6.19843H192.88L192.869 11.5384Z" fill="#654EA3"/>
<path d="M198.707 6.68895H196.594V11.5384H196.071V6.68895H193.958V6.19843H198.707V6.68895Z" fill="#654EA3"/>
<path d="M201.931 6.08694C202.605 6.08764 203.254 6.34271 203.748 6.80135C204.243 7.25998 204.547 7.88855 204.6 8.56186C204.611 8.68053 204.611 8.79994 204.6 8.91861H199.685C199.679 9.21765 199.733 9.51487 199.844 9.79258C199.955 10.0703 200.12 10.3228 200.33 10.5351C200.747 10.9497 201.311 11.1822 201.898 11.1817C202.386 11.1896 202.861 11.0281 203.243 10.7246C203.627 10.4247 203.891 9.99793 203.988 9.52061H204.6C204.487 10.1249 204.159 10.6675 203.677 11.0479C203.201 11.4391 202.602 11.6484 201.987 11.6388C201.624 11.6465 201.264 11.5803 200.927 11.4443C200.591 11.3082 200.286 11.1051 200.03 10.8473C199.773 10.596 199.568 10.2963 199.426 9.96529C199.285 9.6343 199.211 9.27859 199.207 8.91861C199.208 8.5371 199.28 8.15911 199.418 7.80378C199.551 7.4748 199.748 7.17547 199.997 6.92307C200.244 6.67595 200.539 6.48242 200.864 6.3545C201.199 6.19683 201.562 6.10596 201.931 6.08694ZM201.931 6.53288C201.388 6.54378 200.867 6.75398 200.467 7.12373C200.068 7.49348 199.817 7.99716 199.763 8.53956H204.111C204.055 7.98767 203.797 7.47627 203.386 7.10521C202.974 6.73416 202.44 6.5301 201.887 6.53288H201.931Z" fill="#654EA3"/>
<path d="M208.659 6.08694C209.006 6.081 209.351 6.1484 209.671 6.28476C209.991 6.42113 210.279 6.6234 210.516 6.87847C210.774 7.14879 210.974 7.46925 211.104 7.82011C211.234 8.17097 211.291 8.54481 211.272 8.9186C211.297 9.65646 211.029 10.3741 210.527 10.9141C210.288 11.1701 209.998 11.3728 209.677 11.5092C209.355 11.6455 209.008 11.7125 208.659 11.7057C208.181 11.7118 207.713 11.5761 207.313 11.3155C206.922 11.0648 206.612 10.7043 206.423 10.2787V13.8238H205.901V6.19842H206.423V7.51392C206.612 7.08834 206.922 6.72779 207.313 6.47713C207.714 6.21897 208.182 6.0834 208.659 6.08694ZM210.126 7.20177C209.927 6.99048 209.685 6.82372 209.417 6.71231C209.148 6.60091 208.86 6.54737 208.57 6.55517C208.281 6.54754 207.994 6.60121 207.728 6.71265C207.461 6.82409 207.222 6.99078 207.024 7.20177C206.805 7.42763 206.637 7.6974 206.529 7.99331C206.422 8.28922 206.378 8.60457 206.401 8.9186C206.388 9.21899 206.435 9.51903 206.54 9.80066C206.645 10.0823 206.806 10.3397 207.013 10.5574C207.429 10.9659 207.987 11.1948 208.57 11.1948C209.152 11.1948 209.711 10.9659 210.126 10.5574C210.333 10.3397 210.494 10.0823 210.599 9.80066C210.704 9.51903 210.751 9.21899 210.738 8.9186C210.762 8.61323 210.723 8.30616 210.624 8.01653C210.524 7.7269 210.366 7.46093 210.16 7.23521L210.126 7.20177Z" fill="#654EA3"/>
<path d="M214.919 6.08695C215.336 6.08119 215.748 6.17682 216.12 6.36565C216.484 6.5442 216.804 6.80341 217.054 7.12373C217.301 7.45383 217.471 7.83452 217.554 8.23856H217.02C216.917 7.76373 216.654 7.33885 216.275 7.03455C215.891 6.72691 215.411 6.56506 214.919 6.57747C214.626 6.57133 214.334 6.62554 214.063 6.73675C213.791 6.84796 213.545 7.01382 213.34 7.22407C213.122 7.44641 212.953 7.71209 212.844 8.00397C212.735 8.29584 212.688 8.60743 212.706 8.91861C212.697 9.21872 212.748 9.51758 212.857 9.79727C212.966 10.077 213.13 10.3317 213.34 10.5463C213.543 10.7602 213.788 10.9292 214.06 11.0424C214.332 11.1557 214.625 11.2107 214.919 11.204C215.41 11.2117 215.889 11.0504 216.275 10.7469C216.659 10.4429 216.923 10.0124 217.02 9.53176H217.554C217.446 10.1504 217.118 10.7088 216.631 11.1037C216.105 11.5235 215.444 11.7359 214.772 11.701C214.1 11.6661 213.464 11.3862 212.984 10.9141C212.723 10.6538 212.518 10.3422 212.382 9.99887C212.246 9.65552 212.182 9.28777 212.195 8.91861C212.183 8.55121 212.247 8.1854 212.383 7.84398C212.519 7.50256 212.724 7.19287 212.984 6.93421C213.231 6.6669 213.53 6.45364 213.863 6.30783C214.196 6.16203 214.556 6.08682 214.919 6.08695Z" fill="#654EA3"/>
<path d="M219.3 8.23856H222.892V11.583H218.777V6.19843H219.3V8.23856ZM219.3 8.69564V11.0479H222.391V8.69564H219.3Z" fill="#654EA3"/>
<path d="M225.349 8.72908L228.362 11.5384H227.651L224.815 8.9186V11.5496H224.293V6.19843H224.815V8.58416L227.362 6.19843H228.062L225.349 8.72908Z" fill="#654EA3"/>
<path d="M231.287 6.08694C231.764 6.08077 232.232 6.21656 232.632 6.47713C233.027 6.72713 233.34 7.08756 233.533 7.51392V6.19843H234.056V11.5384H233.511V10.223C233.333 10.5911 233.068 10.9105 232.74 11.1536C232.411 11.3968 232.029 11.5564 231.625 11.6189C231.222 11.6814 230.809 11.6448 230.423 11.5124C230.037 11.3799 229.689 11.1555 229.408 10.8584C228.904 10.3387 228.621 9.64331 228.618 8.9186C228.607 8.55412 228.668 8.19101 228.798 7.85036C228.928 7.50971 229.124 7.1983 229.374 6.93421C229.612 6.66186 229.907 6.44493 230.237 6.29858C230.568 6.15223 230.926 6.08 231.287 6.08694ZM232.922 7.20177C232.722 6.99049 232.48 6.82372 232.212 6.71232C231.944 6.60091 231.655 6.54737 231.365 6.55517C231.076 6.54754 230.789 6.60121 230.523 6.71265C230.257 6.82409 230.017 6.99078 229.819 7.20177C229.59 7.42276 229.411 7.69033 229.294 7.98648C229.177 8.28262 229.125 8.60047 229.141 8.9186C229.129 9.21978 229.178 9.52028 229.285 9.80196C229.392 10.0836 229.555 10.3406 229.764 10.5574C230.179 10.9626 230.735 11.1893 231.315 11.1893C231.894 11.1893 232.451 10.9626 232.866 10.5574C233.079 10.3425 233.246 10.0863 233.357 9.80457C233.468 9.52281 233.52 9.22136 233.511 8.9186C233.526 8.60845 233.477 8.29851 233.366 8.00862C233.255 7.71874 233.084 7.45531 232.866 7.23521L232.922 7.20177Z" fill="#654EA3"/>
<path d="M161.901 20.1672L164.914 22.9766H164.203L161.367 20.3456V22.9766H160.844V17.6365H161.367V20.0669L163.914 17.6811H164.57L161.901 20.1672Z" fill="#654EA3"/>
<path d="M167.905 17.5251C168.266 17.5172 168.624 17.5845 168.957 17.7227C169.29 17.8608 169.591 18.0669 169.84 18.3277C170.098 18.5859 170.301 18.8939 170.437 19.2331C170.573 19.5723 170.638 19.9356 170.63 20.301C170.629 20.6826 170.558 21.0607 170.418 21.4158C170.285 21.7448 170.089 22.0441 169.84 22.2965C169.588 22.5397 169.294 22.736 168.973 22.8762C168.62 23.0205 168.242 23.0925 167.861 23.088C167.499 23.0948 167.14 23.027 166.805 22.8889C166.47 22.7509 166.167 22.5455 165.915 22.2854C165.656 22.0255 165.453 21.7156 165.317 21.3745C165.181 21.0334 165.116 20.6681 165.125 20.301C165.12 19.8012 165.247 19.3089 165.492 18.874C165.731 18.4594 166.077 18.1168 166.493 17.8818C166.923 17.6366 167.411 17.5133 167.905 17.5251ZM169.473 18.6399C169.271 18.4289 169.027 18.2624 168.757 18.1511C168.487 18.0397 168.197 17.986 167.905 17.9933C167.612 17.9865 167.32 18.0404 167.049 18.1516C166.777 18.2629 166.531 18.4291 166.326 18.6399C166.117 18.8544 165.953 19.1092 165.844 19.3889C165.735 19.6686 165.683 19.9674 165.693 20.2675C165.682 20.5695 165.733 20.8705 165.842 21.1522C165.95 21.4339 166.115 21.6905 166.326 21.9063C166.669 22.2606 167.118 22.4911 167.605 22.5617C168.092 22.6323 168.589 22.5391 169.017 22.2965C169.352 22.1021 169.629 21.821 169.818 21.4827C170.021 21.1225 170.124 20.7146 170.118 20.301C170.126 20.0001 170.073 19.7007 169.962 19.421C169.851 19.1413 169.685 18.8869 169.473 18.6733V18.6399Z" fill="#654EA3"/>
<path d="M179.025 22.9766H178.513V18.1271H175.689V22.9766H175.167V18.1271H172.387V22.9766H171.864V17.6365H179.025V22.9766Z" fill="#654EA3"/>
<path d="M185.03 22.9766H184.507V18.1271H181.171V22.9766H180.648V17.6365H185.007L185.03 22.9766Z" fill="#654EA3"/>
<path d="M188.899 17.525C189.38 17.5206 189.851 17.6562 190.256 17.9152C190.645 18.1688 190.953 18.5285 191.145 18.952V17.6365H191.668V22.9766H191.145V21.6611C190.957 22.0866 190.647 22.4472 190.256 22.6978C189.856 22.9584 189.387 23.0942 188.91 23.088C188.561 23.0948 188.214 23.0279 187.892 22.8915C187.571 22.7552 187.281 22.5524 187.042 22.2965C186.54 21.7565 186.272 21.0388 186.297 20.301C186.284 19.9372 186.343 19.5744 186.471 19.2337C186.599 18.893 186.793 18.5812 187.042 18.3166C187.279 18.0615 187.567 17.8592 187.887 17.7229C188.207 17.5865 188.552 17.5191 188.899 17.525ZM190.534 18.6399C190.119 18.2347 189.562 18.008 188.983 18.008C188.403 18.008 187.847 18.2347 187.431 18.6399C187.224 18.8553 187.062 19.1105 186.955 19.3902C186.848 19.6698 186.798 19.9682 186.809 20.2675C186.792 20.8749 187.016 21.4641 187.431 21.9063C187.631 22.1176 187.873 22.2844 188.141 22.3958C188.409 22.5072 188.698 22.5607 188.988 22.5529C189.277 22.5613 189.564 22.5079 189.83 22.3964C190.097 22.2849 190.337 22.1179 190.534 21.9063C190.743 21.6895 190.906 21.4325 191.013 21.1509C191.12 20.8692 191.169 20.5687 191.157 20.2675C191.163 19.9738 191.111 19.6817 191.004 19.4081C190.897 19.1345 190.737 18.8848 190.534 18.6733V18.6399Z" fill="#654EA3"/>
<path d="M197.739 22.9766H197.228V20.4682H193.825V22.9766H193.302V17.6365H193.825V19.9777H197.228V17.6365H197.739V22.9766Z" fill="#654EA3"/>
<path d="M199.351 15.9532C199.405 15.8981 199.474 15.8603 199.549 15.8444C199.624 15.8285 199.703 15.8353 199.774 15.8639C199.845 15.8925 199.907 15.9417 199.95 16.0052C199.994 16.0687 200.018 16.1437 200.019 16.2207C200.019 16.2705 200.01 16.3199 199.99 16.3659C199.971 16.4119 199.943 16.4535 199.907 16.4883C199.833 16.5605 199.733 16.6008 199.629 16.6008C199.526 16.6008 199.426 16.5605 199.351 16.4883C199.314 16.4549 199.285 16.4135 199.265 16.3672C199.246 16.3209 199.238 16.2708 199.24 16.2207C199.24 16.1709 199.249 16.1215 199.268 16.0755C199.288 16.0295 199.316 15.9879 199.351 15.9532ZM199.885 22.9766H199.363V17.6365H199.885V22.9766Z" fill="#654EA3"/>
<path d="M205.612 22.9766H205.089V20.8918H202.954L201.842 22.9766H201.264L202.376 20.8918H201.487V17.6365H205.601L205.612 22.9766ZM201.998 18.1271V20.457H205.089V18.1271H201.998Z" fill="#654EA3"/>
</g>
<defs>
<clipPath id="clip0_463_686">
<rect width="234" height="30" fill="white"/>
</clipPath>
</defs>
</svg>
