<svg width="147" height="30" viewBox="0 0 147 30" fill="none" xmlns="http://www.w3.org/2000/svg">
<g clip-path="url(#clip0_582_15136)">
<path d="M15.6452 22.9766H10.4746V11.1483H5.17059V22.9766H0V6.25421H15.6452V22.9766Z" fill="#1D1D1B"/>
<path d="M24.7966 5.79713C25.7151 5.77399 26.6261 5.96897 27.4551 6.36616C28.2842 6.76334 29.0078 7.35147 29.5669 8.08253V6.19847H34.7486V22.9766H29.5669V21.1817C29.0036 21.8988 28.281 22.4739 27.4565 22.8611C26.6321 23.2482 25.7288 23.4367 24.8188 23.4114C23.7943 23.428 22.7792 23.2143 21.8479 22.786C20.9166 22.3577 20.0927 21.7257 19.4369 20.9365C17.9549 19.1739 17.1853 16.9187 17.2797 14.6154C17.1912 12.3144 17.9647 10.0635 19.4481 8.30549C20.0976 7.51515 20.9147 6.87991 21.8399 6.446C22.7651 6.01209 23.7752 5.79043 24.7966 5.79713V5.79713ZM26.042 10.747C25.5705 10.7346 25.1017 10.8225 24.6666 11.0051C24.2315 11.1877 23.84 11.4606 23.5178 11.8061C22.8305 12.5625 22.4671 13.5594 22.5059 14.582C22.4612 15.6121 22.825 16.6181 23.5178 17.3802C23.8409 17.7236 24.2329 17.9945 24.668 18.1751C25.103 18.3557 25.5713 18.442 26.042 18.4281C26.6768 18.4359 27.3024 18.2743 27.8544 17.9599C28.3935 17.6402 28.8296 17.172 29.111 16.611C29.4305 15.9838 29.5873 15.286 29.5669 14.582C29.6099 13.5608 29.2504 12.5637 28.5661 11.8061C28.244 11.4606 27.8524 11.1877 27.4173 11.0051C26.9822 10.8225 26.5135 10.7346 26.042 10.747V10.747Z" fill="#1D1D1B"/>
<path d="M46.7021 5.79711C47.7195 5.78484 48.7267 6.0007 49.6502 6.42891C50.5737 6.85711 51.39 7.48683 52.0395 8.27202C53.5468 10.0196 54.3409 12.2729 54.2634 14.5819C54.3525 16.8845 53.5835 19.1378 52.1062 20.903C51.4508 21.7007 50.6247 22.3404 49.6893 22.7746C48.7538 23.2088 47.7329 23.4264 46.7021 23.4114C45.7922 23.4358 44.8892 23.2469 44.0649 22.8598C43.2407 22.4728 42.5179 21.8981 41.9541 21.1817V30H36.7612V6.19844H41.9318V8.0825C42.4927 7.35345 43.2167 6.76677 44.0453 6.36979C44.8739 5.97281 45.784 5.77664 46.7021 5.79711ZM45.4678 10.7469C44.9963 10.7345 44.5276 10.8225 44.0925 11.0051C43.6574 11.1876 43.2658 11.4606 42.9437 11.806C42.6013 12.1793 42.3357 12.6166 42.1621 13.093C41.9884 13.5693 41.9102 14.0753 41.9318 14.5819C41.9072 15.0923 41.984 15.6025 42.1577 16.0828C42.3314 16.5632 42.5986 17.0042 42.9437 17.3802C43.2752 17.7125 43.6687 17.9762 44.1018 18.1561C44.5349 18.3359 44.9991 18.4285 45.4678 18.4285C45.9366 18.4285 46.4008 18.3359 46.8339 18.1561C47.267 17.9762 47.6605 17.7125 47.992 17.3802C48.6818 16.617 49.0417 15.6107 48.9927 14.5819C49.0358 13.5608 48.6763 12.5636 47.992 11.806C47.6698 11.4606 47.2783 11.1876 46.8432 11.0051C46.4081 10.8225 45.9393 10.7345 45.4678 10.7469V10.7469Z" fill="#1D1D1B"/>
<path d="M63.2035 5.79712C64.1235 5.77489 65.0358 5.97021 65.8664 6.36726C66.6971 6.76431 67.4229 7.35192 67.9849 8.08251V6.19845H73.1555V22.9766H67.9849V21.1817C67.4211 21.8982 66.6983 22.4728 65.874 22.8598C65.0497 23.2469 64.1467 23.4358 63.2368 23.4114C62.2042 23.4281 61.1811 23.2113 60.2436 22.777C59.3061 22.3428 58.4782 21.7022 57.8216 20.903C56.3444 19.1378 55.5754 16.8845 55.6644 14.582C55.5869 12.2729 56.3811 10.0196 57.8883 8.27203C58.5355 7.48978 59.3482 6.86182 60.2676 6.43373C61.1869 6.00565 62.1898 5.78818 63.2035 5.79712V5.79712ZM64.4934 10.7469C64.0219 10.7345 63.5531 10.8225 63.118 11.0051C62.6829 11.1876 62.2914 11.4606 61.9692 11.806C61.2849 12.5636 60.9254 13.5608 60.9685 14.582C60.9195 15.6107 61.2794 16.617 61.9692 17.3802C62.2923 17.7236 62.6843 17.9945 63.1194 18.1751C63.5544 18.3557 64.0227 18.4419 64.4934 18.4281C65.1286 18.4386 65.7548 18.2769 66.3058 17.9599C66.8467 17.6389 67.2861 17.1713 67.5735 16.6109C67.8878 15.9819 68.0443 15.2854 68.0294 14.582C68.051 14.0753 67.9728 13.5693 67.7991 13.093C67.6255 12.6167 67.3599 12.1793 67.0175 11.806C66.6954 11.4606 66.3038 11.1876 65.8687 11.0051C65.4336 10.8225 64.9649 10.7345 64.4934 10.7469V10.7469Z" fill="#1D1D1B"/>
<path d="M83.3967 5.79711C85.4917 5.74871 87.5335 6.46142 89.1455 7.8038C90.7632 9.15254 91.7826 11.0884 91.981 13.1884H86.6547C86.5431 12.7028 86.3226 12.2491 86.0098 11.8618C85.7157 11.4905 85.3334 11.1991 84.8978 11.0145C84.4424 10.8148 83.9493 10.716 83.4523 10.7246C82.8148 10.7075 82.1858 10.8738 81.6398 11.204C81.1175 11.5389 80.695 12.0087 80.4166 12.5641C80.1201 13.1867 79.9716 13.8698 79.983 14.5597C79.9344 15.5824 80.2809 16.5846 80.9504 17.3579C81.2619 17.701 81.6439 17.9724 82.07 18.1533C82.4962 18.3342 82.9564 18.4203 83.4189 18.4058C84.1666 18.4188 84.8977 18.1836 85.4983 17.7369C86.0823 17.2869 86.4787 16.6352 86.6102 15.9086H91.9365C91.7443 18.0085 90.7333 19.9475 89.1233 21.3044C87.556 22.6751 85.5432 23.4244 83.4634 23.4114C82.3086 23.4423 81.1598 23.2346 80.0885 22.8011C79.0172 22.3677 78.0464 21.7178 77.2365 20.8919C76.4204 20.0688 75.7798 19.088 75.3536 18.009C74.9273 16.93 74.7243 15.7755 74.7568 14.6154C74.7267 13.4593 74.9287 12.3088 75.3509 11.2325C75.773 10.1562 76.4067 9.17598 77.2142 8.35007C78.0129 7.51938 78.9746 6.86366 80.0387 6.42426C81.1028 5.98486 82.2462 5.77132 83.3967 5.79711V5.79711Z" fill="#1D1D1B"/>
<path d="M129.042 22.9766H123.872V11.1483H120.614L118.757 22.9766H111.485V18.0379H114.287L116.199 6.19843H129.042V22.9766Z" fill="#1D1D1B"/>
<path d="M146.311 22.9766H141.14V17.9376H139.439L136.203 22.9766H130.455L133.79 17.9376H131.567V6.19843H146.322L146.311 22.9766ZM136.57 11.0814V13.8238H141.14V11.0814H136.57Z" fill="#1D1D1B"/>
<path d="M114.698 15.8528C114.895 13.8474 115.521 11.9081 116.533 10.1672C114.727 9.28793 113.133 8.02495 111.863 6.466C110.587 4.89869 109.666 3.07316 109.161 1.11483C107.262 1.77348 105.244 2.00935 103.245 1.80602C101.249 1.62588 99.3175 1.00941 97.5852 0C96.7067 1.80994 95.4472 3.40739 93.8935 4.68227C92.34 5.95664 90.531 6.8806 88.5895 7.3913C89.2466 9.29226 89.4875 11.3129 89.2956 13.3155C89.1037 15.3182 88.4836 17.2559 87.4775 18.9967C89.282 19.8837 90.8748 21.1498 92.1478 22.709C93.423 24.2638 94.3451 26.0785 94.8498 28.0268C96.7446 27.3605 98.7611 27.1152 100.76 27.3077C102.759 27.5002 104.692 28.1259 106.425 29.1416C107.305 27.3326 108.564 25.7356 110.117 24.4598C111.67 23.1841 113.479 22.2598 115.421 21.7503C114.763 19.8587 114.517 17.8478 114.698 15.8528V15.8528ZM101.989 15.3177C101.796 15.3148 101.612 15.236 101.477 15.0983C101.342 14.9606 101.266 14.7752 101.266 14.5819C101.266 14.3898 101.342 14.2054 101.477 14.0695C101.613 13.9336 101.797 13.8573 101.989 13.8573C102.18 13.8573 102.364 13.9336 102.5 14.0695C102.635 14.2054 102.711 14.3898 102.711 14.5819C102.711 14.7752 102.636 14.9606 102.5 15.0983C102.365 15.236 102.181 15.3148 101.989 15.3177V15.3177Z" fill="#654EA3"/>
</g>
<defs>
<clipPath id="clip0_582_15136">
<rect width="147" height="30" fill="white"/>
</clipPath>
</defs>
</svg>
