<svg width="265" height="153" viewBox="0 0 265 153" fill="none" xmlns="http://www.w3.org/2000/svg">
<g clip-path="url(#clip0_201_115)">
<path d="M199.01 20.2568C190.241 11.6725 178.448 7.08913 166.55 4.81497C153.741 2.42256 140.636 2.04835 127.711 3.70597C114.585 5.33005 101.781 8.93198 89.7374 14.3889C78.4859 19.4987 67.3681 26.1808 59.3373 35.7056C50.8988 45.7497 47.1154 58.6156 46.9045 71.5937C46.8396 78.7124 47.5469 85.8172 49.0141 92.784C50.3151 99.5909 52.1227 106.292 54.4219 112.83C56.637 118.923 59.6749 124.657 64.1122 129.437C68.451 134.098 73.7533 137.86 79.2524 141.004C90.3537 147.285 102.645 151.186 115.341 152.459C128.094 153.747 140.975 152.555 153.273 148.95C165.487 145.382 177.012 139.787 187.365 132.399C189.882 130.616 192.332 128.745 194.713 126.784C195.417 126.187 194.622 125.268 193.891 125.38C182.892 127.009 171.894 128.672 160.889 130.294C150.087 131.866 139.209 132.94 128.4 130.806C118.471 128.841 108.998 124.938 99.8567 120.579C97.5749 119.593 95.429 118.319 93.4715 116.789C91.6566 115.222 90.1495 113.333 89.0271 111.216C86.7222 106.852 85.0303 102.192 83.9991 97.3674C81.9165 88.7416 81.7024 79.7714 83.3711 71.0563C85.0398 62.3413 88.5528 54.0821 93.6754 46.8307C98.3213 40.1588 104.273 34.4952 111.171 30.1816C119.357 25.1069 128.569 22.8257 137.971 21.1762C148.041 19.4075 158.259 17.765 168.476 17.1684C177.112 16.663 186.275 17.0701 194.165 20.9587C196.048 21.8823 197.828 23.0022 199.474 24.2997C200.318 25.0016 201.521 23.7803 200.67 23.1065C193.595 17.4772 184.665 15.533 175.804 15.3084C165.804 15.0627 155.741 16.635 145.882 18.1511C135.573 19.7303 124.954 21.2956 115.468 25.872C107.993 29.5275 101.366 34.701 96.0101 41.0611C90.2721 47.8159 85.9835 55.6739 83.4095 64.1491C80.8356 72.6243 80.031 81.5364 81.0456 90.3344C81.6484 95.5081 82.8544 100.594 84.6391 105.488C86.2776 109.966 88.338 114.613 92.0228 117.786C95.8272 121.085 100.841 122.959 105.384 124.945C110.191 127.082 115.123 128.929 120.151 130.476C125.057 131.975 130.101 132.979 135.207 133.473C140.853 133.903 146.526 133.78 152.148 133.108C157.774 132.512 163.399 131.62 168.969 130.785L186.008 128.258L194.369 127.044L193.546 125.64C183.942 133.642 173.091 140.023 161.423 144.528C149.828 149.025 137.499 151.338 125.06 151.35C112.483 151.345 100.04 148.778 88.4927 143.805C77.2412 138.892 65.9405 131.627 59.8015 120.706C56.644 115.09 54.7453 108.9 53.0928 102.716C51.2032 95.9181 49.8489 88.9832 49.0423 81.9748C47.6921 68.9405 49.0845 55.1973 55.7791 43.6862C61.89 33.1577 71.953 25.6614 82.5013 19.9198C105.278 7.57945 131.269 2.42291 157.042 5.13083C168.912 6.38723 181.029 9.34222 191.078 16.0313C193.484 17.6336 195.735 19.4571 197.801 21.4781C198.574 22.2361 199.77 21.0499 198.989 20.2848L199.01 20.2568Z" fill="#FFC640"/>
<path d="M240.542 55.408C246.865 47.1671 251.083 37.5144 252.834 27.2829H251.21C252.673 35.1405 254.822 42.8556 257.63 50.3403L258.446 49.2734C257.687 49.2095 256.982 48.8518 256.484 48.2767C255.781 47.673 255.176 47.0343 254.515 46.4166L250.464 42.5772L242.356 34.9055L241.54 36.3093C248.91 38.8734 256.899 39.0722 264.388 36.8778L263.741 35.3407C254.447 40.4072 245.627 46.2939 237.384 52.9303C236.541 53.6322 237.743 54.7973 238.58 54.1165C246.719 47.5809 255.427 41.7836 264.599 36.7936C264.775 36.6898 264.908 36.5256 264.972 36.3316C265.036 36.1376 265.027 35.927 264.947 35.739C264.867 35.5509 264.721 35.3983 264.537 35.3096C264.353 35.2208 264.142 35.2019 263.945 35.2564C256.747 37.3646 249.068 37.1633 241.991 34.6809C241.813 34.6403 241.628 34.6573 241.461 34.7296C241.294 34.8019 241.155 34.9256 241.064 35.0825C240.973 35.2395 240.934 35.4214 240.954 35.6018C240.974 35.7821 241.052 35.9514 241.175 36.0847L250.035 44.5075L254.346 48.5855C255.513 49.6945 256.716 51.0141 258.453 50.979C258.582 50.9766 258.709 50.9451 258.825 50.8868C258.94 50.8285 259.041 50.7449 259.119 50.6423C259.198 50.5397 259.252 50.4207 259.278 50.2943C259.303 50.1678 259.3 50.0372 259.269 49.9121C256.455 42.4287 254.304 34.7133 252.841 26.8547C252.787 26.6819 252.679 26.5309 252.533 26.4236C252.387 26.3164 252.21 26.2585 252.029 26.2585C251.848 26.2585 251.671 26.3164 251.525 26.4236C251.379 26.5309 251.271 26.6819 251.217 26.8547C249.486 36.934 245.326 46.442 239.093 54.5587C238.432 55.422 239.902 56.2573 240.549 55.408H240.542Z" fill="#FFC640"/>
<path d="M1.56808 26.2159L8.74791 13.1957L12.264 6.78737C13.2391 4.81559 14.5049 3.0009 16.0192 1.4038L14.6127 1.03179C15.6535 4.01252 16.6427 7.00963 17.5803 10.0231C18.0304 11.5322 18.4664 13.0413 18.8742 14.5644C19.3478 16.0635 19.7422 17.5864 20.0556 19.1268C20.0556 19.218 20.0556 19.4917 20.0908 19.5339C20.2174 19.8006 19.9431 19.4917 20.147 19.583C20.351 19.6742 19.9361 19.3163 19.9572 19.3303C19.7958 19.216 19.6239 19.1173 19.4438 19.0355C18.8531 18.6916 18.2624 18.3336 17.6788 17.9546C16.5185 17.2527 15.3863 16.4244 14.2893 15.5892C12.0734 13.8927 10.0035 12.0144 8.10096 9.97399C7.018 8.82989 5.99131 7.63666 5.02087 6.3943C4.05043 5.15194 3.02373 3.80429 3.10812 2.18291L2.26426 3.02519L21.6801 5.01858V3.33402C17.1021 3.56565 13.2415 6.59083 9.98557 9.51775C6.54727 12.5944 3.55978 16.1386 1.11099 20.0462C0.534348 20.9657 1.99001 21.815 2.57368 20.8955C4.84114 17.286 7.58486 13.9973 10.731 11.1181C13.7408 8.36664 17.4186 5.24319 21.6801 5.0256C21.9039 5.0256 22.1185 4.93686 22.2768 4.7789C22.435 4.62094 22.5239 4.40671 22.5239 4.18332C22.5239 3.95993 22.435 3.7457 22.2768 3.58774C22.1185 3.42978 21.9039 3.34104 21.6801 3.34104L2.23613 1.36168C2.01535 1.36714 1.80534 1.45807 1.6505 1.61524C1.49565 1.77242 1.40809 1.98353 1.40634 2.20396C1.40825 3.73507 1.93146 5.22007 2.89012 6.41536C3.82197 7.70489 4.8244 8.94212 5.89286 10.1214C8.03141 12.5079 10.3854 14.693 12.925 16.649C14.1908 17.6317 15.4941 18.5559 16.8349 19.4216C17.503 19.8427 18.171 20.2568 18.8531 20.6499C19.5352 21.0429 20.0978 21.4149 20.787 21.1623C22.1934 20.6709 21.7504 18.9302 21.4902 17.8704C21.0401 16.0735 20.569 14.2836 20.0838 12.4938C18.9586 8.49298 17.6858 4.53427 16.2934 0.624689C16.2505 0.485932 16.1729 0.360357 16.0679 0.25977C15.963 0.159183 15.8341 0.0868904 15.6935 0.0496893C15.5528 0.0124882 15.405 0.0116012 15.2639 0.0471115C15.1229 0.0826219 14.9931 0.153363 14.887 0.252683C13.375 1.8224 12.1026 3.6056 11.1107 5.545C9.90822 7.70685 8.71979 9.88274 7.52432 12.0446L0.112419 25.3666C-0.414994 26.3212 1.0477 27.1705 1.56808 26.2159Z" fill="#FFC640"/>
<path d="M151.543 78.4512C156.112 74.0066 159.326 68.3604 160.811 62.1672L159.264 62.3637C161.824 67.511 164.379 72.6582 166.929 77.8055L168.082 76.6544C162.532 73.6128 157.14 70.3373 151.908 66.8278L151.262 68.365C157.515 69.4064 163.839 69.9766 170.178 70.0706L169.953 68.4141C163.257 70.1932 156.681 72.3922 150.263 74.9979C149.264 75.405 149.7 77.0334 150.713 76.6263C157.13 74.0164 163.706 71.8174 170.403 70.0425C170.593 69.9812 170.755 69.8552 170.861 69.6867C170.967 69.5181 171.011 69.3177 170.984 69.1204C170.957 68.9231 170.862 68.7415 170.715 68.6072C170.567 68.473 170.377 68.3947 170.178 68.386C163.981 68.279 157.802 67.7089 151.69 66.6804C151.496 66.6375 151.294 66.6638 151.117 66.7546C150.94 66.8454 150.801 66.9951 150.723 67.1776C150.646 67.3602 150.634 67.5641 150.692 67.7541C150.749 67.944 150.871 68.108 151.036 68.2176C156.282 71.7551 161.674 75.0447 167.21 78.0863C167.372 78.1752 167.559 78.2092 167.742 78.183C167.925 78.1568 168.094 78.0718 168.224 77.941C168.355 77.8102 168.439 77.6406 168.464 77.4578C168.489 77.2751 168.454 77.0892 168.364 76.9281L160.706 61.4863C160.618 61.3473 160.493 61.2362 160.344 61.1664C160.195 61.0965 160.03 61.0707 159.867 61.0922C159.704 61.1136 159.55 61.1814 159.425 61.2873C159.299 61.3933 159.207 61.533 159.159 61.6899C157.753 67.6042 154.69 72.9969 150.326 77.237C149.546 77.995 150.741 79.1812 151.522 78.4232L151.543 78.4512Z" fill="#FFC640"/>
</g>
<defs>
<clipPath id="clip0_201_115">
<rect width="265" height="153" fill="white"/>
</clipPath>
</defs>
</svg>
