<svg width="56" height="56" viewBox="0 0 56 56" fill="none" xmlns="http://www.w3.org/2000/svg">
<path d="M26.8235 28C26.9235 27.7331 27.0773 27.4897 27.2753 27.2847C27.4821 27.0822 27.729 26.9252 28 26.8235C27.8831 26.563 27.8222 26.2808 27.8212 25.9953C27.8202 25.7095 27.8812 25.427 28 25.1671V25.1671C27.7331 25.0671 27.4897 24.9133 27.2847 24.7153C27.0784 24.5152 26.9206 24.2705 26.8235 24V24C26.563 24.1169 26.2808 24.1778 25.9953 24.1788C25.7127 24.1784 25.4335 24.1175 25.1765 24V24C25.0794 24.2705 24.9216 24.5152 24.7153 24.7153C24.5142 24.9182 24.2696 25.0727 24 25.1671V25.1671C24.1188 25.427 24.1798 25.7095 24.1788 25.9953C24.1778 26.2808 24.1169 26.563 24 26.8235V26.8235C24.2696 26.9179 24.5142 27.0724 24.7153 27.2753C24.9133 27.4803 25.0671 27.7237 25.1671 27.9906V27.9906C25.427 27.8718 25.7095 27.8108 25.9953 27.8118C26.2815 27.8158 26.5637 27.8799 26.8235 28V28Z" fill="#654EA3"/>
<path d="M26.8302 56C26.9248 55.7304 27.0796 55.4858 27.283 55.2847C27.4907 55.0872 27.734 54.9307 28 54.8235V54.8235C27.8821 54.5633 27.821 54.2809 27.8208 53.9953C27.8218 53.7098 27.8829 53.4276 28 53.1671V53.1671C27.7325 53.0676 27.4896 52.9119 27.2878 52.7105C27.086 52.5091 26.9299 52.2668 26.8302 52V52C26.569 52.1169 26.2862 52.1778 26 52.1788C25.7136 52.1798 25.4303 52.1188 25.1698 52V52C25.0714 52.265 24.917 52.5058 24.717 52.7059C24.5164 52.9122 24.2712 53.07 24 53.1671V53.1671C24.1171 53.4276 24.1782 53.7098 24.1792 53.9953C24.179 54.2809 24.1179 54.5633 24 54.8235V54.8235C24.2684 54.9261 24.5126 55.0831 24.717 55.2847C24.9204 55.4858 25.0752 55.7304 25.1698 56V56C25.4303 55.8812 25.7136 55.8202 26 55.8212C26.2862 55.8222 26.569 55.8831 26.8302 56V56Z" fill="#654EA3"/>
<path d="M54.8235 28C54.9307 27.7346 55.0872 27.4919 55.2847 27.2847C55.4848 27.0784 55.7295 26.9206 56 26.8235V26.8235C55.8831 26.563 55.8222 26.2808 55.8212 25.9953C55.8202 25.7095 55.8812 25.427 56 25.1671V25.1671C55.7304 25.0727 55.4858 24.9182 55.2847 24.7153C55.0831 24.5114 54.9261 24.2678 54.8235 24V24C54.5633 24.1177 54.2809 24.1786 53.9953 24.1788C53.7098 24.1778 53.4276 24.1169 53.1671 24V24C53.07 24.2705 52.9122 24.5152 52.7059 24.7153C52.5058 24.9148 52.265 25.0689 52 25.1671V25.1671C52.1188 25.427 52.1798 25.7095 52.1788 25.9953C52.1778 26.2808 52.1169 26.563 52 26.8235V26.8235C52.2668 26.923 52.5091 27.0787 52.7105 27.2801C52.9119 27.4814 53.0676 27.7238 53.1671 27.9906V27.9906C53.4276 27.8737 53.7098 27.8128 53.9953 27.8118C54.2809 27.812 54.5633 27.8729 54.8235 27.9906V28Z" fill="#654EA3"/>
<path d="M54.8235 56C54.9245 55.7314 55.0817 55.4875 55.2846 55.2846C55.4875 55.0817 55.7314 54.9245 56 54.8235V54.8235C55.8823 54.5633 55.8214 54.2809 55.8212 53.9953C55.8222 53.7098 55.8831 53.4276 56 53.1671V53.1671C55.7295 53.07 55.4848 52.9122 55.2847 52.7059C55.0854 52.5037 54.9286 52.2637 54.8235 52V52C54.5633 52.1177 54.2809 52.1786 53.9953 52.1788C53.7098 52.1778 53.4276 52.1169 53.1671 52V52C53.0639 52.2647 52.9069 52.5052 52.7061 52.7061C52.5052 52.9069 52.2647 53.0639 52 53.1671V53.1671C52.1169 53.4276 52.1778 53.7098 52.1788 53.9953C52.1786 54.2809 52.1177 54.5633 52 54.8235C52.2637 54.9286 52.5037 55.0854 52.7059 55.2847C52.9122 55.4848 53.07 55.7295 53.1671 56V56C53.4276 55.8831 53.7098 55.8222 53.9953 55.8212C54.2809 55.8214 54.5633 55.8823 54.8235 56V56Z" fill="#654EA3"/>
</svg>
