<svg width="156" height="250" viewBox="0 0 156 250" fill="none" xmlns="http://www.w3.org/2000/svg">
<g clip-path="url(#clip0_274_18206)">
<path d="M42.8566 90.5727C44.131 90.7786 45.4367 90.652 46.6483 90.2049C47.8598 89.7579 48.9363 89.0054 49.7743 88.02C51.687 85.7328 52.6667 82.804 52.5165 79.8217C52.5165 76.396 51.7709 72.9537 51.2572 69.5779L49.6003 58.8352L47.9434 47.893C47.5043 45.0244 46.2864 41.3992 48.0428 38.7468C49.2938 36.851 51.5803 35.8532 53.6846 35.2462C56.3607 34.5774 59.1041 34.2176 61.8616 34.1736C74.7276 33.5168 88.0742 35.4125 99.1425 42.3637C104.043 45.3674 108.273 49.3528 111.569 54.0709C115.289 59.517 117.244 65.8363 118.678 72.222C120.161 78.8738 121.163 85.7667 119.258 92.4435C117.601 98.1474 114.212 103.178 110.269 107.535C101.736 116.989 90.3856 123.391 82.101 133.103C73.9323 142.69 69.3509 154.721 66.2276 166.777C64.5707 173.296 63.0794 180.081 63.5019 186.841C63.8499 192.595 65.5234 199.313 70.5273 202.805C74.6696 205.657 81.1234 204.975 83.2443 200.012C84.3461 197.434 83.965 194.54 83.5176 191.863C83.0371 188.92 82.5235 186.043 82.9129 183.066C83.6751 177.104 86.9889 171.766 90.6093 167.127C94.7516 161.697 99.5153 156.692 104.047 151.57C113.663 140.666 123.281 129.768 132.902 118.876C137.417 113.931 141.552 108.65 145.271 103.078C148.73 97.6646 151.405 91.7855 153.216 85.6171C156.928 73.1965 156.928 59.9561 153.216 47.5355C149.594 36.1166 142.466 26.1399 132.853 19.0325C123.002 11.5492 111.313 6.99268 99.2916 4.33195C92.6275 2.89547 85.8823 1.86808 79.0936 1.25549C72.1594 0.590309 65.1837 0.0914231 58.2163 -3.92552e-05C45.4828 -0.14139 32.3516 1.54651 21.2585 8.23989C16.3554 11.1411 12.1201 15.0517 8.83151 19.7143C5.20284 24.9442 3.0074 31.1055 1.657 37.3083C-1.16806 50.0465 -0.629559 63.8241 5.28568 75.6643C7.80312 80.7372 11.2976 85.2589 15.5669 88.9679C20.0738 92.8426 25.6908 96.1103 31.7469 96.3847C36.9248 96.6175 42.4423 94.1231 44.6958 89.2423C45.2343 88.0782 43.5193 87.0638 42.9808 88.2279C40.4954 93.5909 34.166 95.2123 28.8058 93.9734C23.0811 92.6514 17.9529 88.918 13.968 84.6858C5.57565 75.7558 1.84755 63.5164 1.97182 51.4101C2.04735 44.8338 3.10577 38.3061 5.1117 32.0451C6.87515 26.1944 9.9597 20.8308 14.1254 16.3717C22.4183 7.80752 34.2654 3.75823 45.8722 2.49439C52.7592 1.86527 59.6856 1.79575 66.5838 2.28652C73.2695 2.66068 79.9552 3.19283 86.5913 4.09082C99.1591 5.75378 111.727 8.8635 122.928 14.9915C132.869 20.4127 141.643 28.1454 147.119 38.1647C153.175 49.2483 155.039 62.3939 153.432 74.8494C152.616 81.1634 150.891 87.3251 148.312 93.1419C145.62 99.0177 142.193 104.525 138.114 109.53C133.93 114.794 129.381 119.766 124.924 124.813L110.691 140.935L96.6074 156.908C92.5645 161.481 88.4305 166.054 85.274 171.301C82.3909 176.115 80.3695 181.653 80.8666 187.348C81.2559 191.797 84.3461 199.879 78.4723 202.082C72.7725 204.219 68.3899 198.756 66.8241 193.958C64.7446 187.573 65.2914 180.655 66.5755 174.178C68.9615 162.071 72.8967 149.682 79.831 139.397C86.9889 128.879 97.759 122.177 106.963 113.721C111.253 109.932 114.943 105.511 117.907 100.609C120.961 95.4552 122.5 89.5404 122.348 83.5467C122.195 80.2109 121.755 76.8948 121.031 73.6355C120.386 70.3674 119.556 67.1389 118.545 63.9654C116.759 58.3545 113.825 53.1801 109.929 48.7744C102.067 40.0522 90.9573 34.9968 79.5327 33.101C72.9824 32.0696 66.3341 31.8128 59.7241 32.3361C55.3167 32.652 49.9068 33.3338 46.8829 36.984C45.1431 39.0793 44.994 41.5738 45.3668 44.2096C45.8639 47.6436 46.419 51.0775 46.9492 54.5115C48.0511 61.5292 49.1446 68.5053 50.1554 75.5146C50.5862 78.5163 50.9838 81.9503 49.592 84.7773C48.4819 87.0638 46.071 89.1342 43.3868 88.6436C42.1358 88.4192 41.5973 90.3066 42.8566 90.5727Z" fill="#FCCA46"/>
<path d="M70.9581 217.207C67.0063 216.009 62.8557 217.797 60.188 220.798C58.8708 222.366 57.9062 224.2 57.3601 226.176C56.8139 228.152 56.699 230.223 57.0233 232.248C58.2494 241.319 65.8464 247.522 74.421 249.31C78.9171 250.234 83.5532 250.234 88.0493 249.31C92.5064 248.395 96.8973 246.125 99.1176 241.96C103.964 232.855 93.9811 225.28 86.7983 221.863C77.2716 217.322 66.4192 216.435 56.2859 219.368C56.048 219.451 55.8504 219.622 55.733 219.846C55.6156 220.069 55.5872 220.329 55.6534 220.573C55.7197 220.817 55.8758 221.027 56.0901 221.16C56.3043 221.292 56.5609 221.339 56.8079 221.289C64.8562 218.943 73.4265 219.12 81.3719 221.796C85.2669 223.082 88.9331 224.983 92.233 227.425C95.2487 229.687 98.3305 232.996 98.3885 237.004C98.4382 241.161 95.2155 244.487 91.6448 246.1C87.7759 247.855 83.1696 248.187 78.9776 247.913C71.132 247.414 63.2368 243.647 60.072 236.023C58.5394 232.298 58.2577 227.799 60.2211 224.174C62.1846 220.549 66.3021 217.88 70.403 219.119C70.6519 219.175 70.9127 219.133 71.1315 219.001C71.3503 218.869 71.5103 218.658 71.5784 218.412C71.6465 218.165 71.6175 217.901 71.4974 217.676C71.3773 217.45 71.1753 217.279 70.9332 217.198L70.9581 217.207Z" fill="#FCCA46"/>
</g>
<defs>
<clipPath id="clip0_274_18206">
<rect width="156" height="250" fill="white"/>
</clipPath>
</defs>
</svg>
