<?xml version="1.0" encoding="utf-8"?><svg xmlns="http://www.w3.org/2000/svg" xmlns:xlink="http://www.w3.org/1999/xlink"><symbol viewBox="0 0 16 16" id="arrow-corner" xmlns="http://www.w3.org/2000/svg"><g clip-path="url(#aclip0_308_8713)"><path d="M12.797 1.735l-1.28 1.28a.363.363 0 00-.105.278l.505 7.423L3.07 1.868a.179.179 0 00-.252.001l-.948.948a.179.179 0 000 .252l8.847 8.848-7.423-.505a.355.355 0 00-.278.105l-1.28 1.28a.177.177 0 00.113.302l11.255.765a.715.715 0 00.763-.763l-.767-11.253a.177.177 0 00-.302-.113z"/></g><defs><clipPath id="aclip0_308_8713"><path d="M0 0h16v16H0z"/></clipPath></defs></symbol><symbol viewBox="0 0 20 20" id="facebook" xmlns="http://www.w3.org/2000/svg"><path d="M7.481 20v-9.385H5V7.237h2.481V4.35C7.481 2.083 8.947 0 12.325 0c1.367 0 2.379.131 2.379.131l-.08 3.155s-1.031-.01-2.157-.01c-1.218 0-1.413.562-1.413 1.493v2.468h3.667l-.16 3.378h-3.507V20H7.481z"/></symbol><symbol viewBox="0 0 280 224" id="heart" xmlns="http://www.w3.org/2000/svg"><g clip-path="url(#cclip0_360_99335)"><path d="M157.418 58.613a111.66 111.66 0 00-59.957-44.497C84.968 10.257 71.288 8.29 58.256 9.769a47.652 47.652 0 00-20.153 6.728 76.476 76.476 0 00-15.515 13.7C13.056 40.676 5.09 52.728 1.872 66.673-1.432 80.96-.159 96.04 4.112 109.973c4.27 13.933 11.453 26.95 19.736 38.953a189.182 189.182 0 0027.287 31.798c20.912 19.269 47.513 32.97 76.243 34.801 3.573.218 7.156.247 10.732.086 1.872-.086 1.884-3.016 0-2.931-28.144 1.221-55.43-9.866-77.088-27.292a171.938 171.938 0 01-28.241-29.172 169.984 169.984 0 01-21.573-35.51C5.531 107.653 2.264 93.451 3.06 79.189a66.884 66.884 0 014.442-20.76 77.074 77.074 0 0110.193-17.742 112.783 112.783 0 0113.68-15.24 47.357 47.357 0 0117.669-10.794c12.554-3.932 26.797-2.735 39.461.098A109.469 109.469 0 01149.6 52.776c1.872 2.345 3.671 4.787 5.286 7.327 1.04 1.563 3.586.097 2.533-1.478v-.012z"/><path d="M149.477 52.971c9.544-11.429 15.907-25.264 26.173-36.108A46.09 46.09 0 01192.267 5.13a37.796 37.796 0 0121.584-1.124c13.13 2.894 25.354 10.38 35.13 19.452A89.044 89.044 0 01270.7 54.583c10.45 25.35 7.758 55.146-6.534 78.493-12.897 21.04-34.261 34.448-55.576 45.755-21.316 11.308-44.05 21.345-63.016 36.914a118.04 118.04 0 00-6.535 5.776c-1.37 1.294.71 3.37 2.081 2.064 18.354-17.389 41.664-28.086 63.86-39.552 21.695-11.246 43.585-23.934 58.146-44.106a90.96 90.96 0 0015.733-38.568 90.879 90.879 0 00-3.117-41.525c-8.125-24.862-27.519-46.194-51.992-55.817A50.746 50.746 0 00201.383.122a38.582 38.582 0 00-19.493 7.327c-12.101 8.706-19.296 21.87-27.47 33.946a115.392 115.392 0 01-7.023 9.464c-1.224 1.44.869 3.517 2.08 2.076v.036z"/></g><defs><clipPath id="cclip0_360_99335"><path d="M0 0h280v224H0z"/></clipPath></defs></symbol><symbol viewBox="0 0 20 20" id="instagram" xmlns="http://www.w3.org/2000/svg"><path d="M9.997 6.665A3.342 3.342 0 006.663 10a3.342 3.342 0 003.334 3.335A3.342 3.342 0 0013.332 10a3.342 3.342 0 00-3.335-3.335zM20 10c0-1.38.012-2.75-.065-4.128-.078-1.6-.443-3.022-1.614-4.193C17.147.506 15.73.143 14.127.066 12.747-.012 11.378 0 10 0 8.619 0 7.25-.012 5.872.066 4.271.143 2.85.509 1.68 1.679.506 2.853.143 4.271.066 5.872-.012 7.253 0 8.622 0 10c0 1.378-.013 2.75.065 4.128.077 1.6.443 3.022 1.613 4.193 1.174 1.173 2.592 1.536 4.193 1.613C7.253 20.012 8.622 20 10 20c1.38 0 2.75.013 4.127-.065 1.602-.077 3.022-.443 4.193-1.613 1.174-1.174 1.536-2.592 1.614-4.193.08-1.379.065-2.747.065-4.128zM9.997 15.131A5.124 5.124 0 014.867 10a5.124 5.124 0 015.13-5.131c2.84 0 5.131 2.292 5.131 5.131a5.124 5.124 0 01-5.13 5.131zm5.341-9.274A1.197 1.197 0 0114.14 4.66c0-.663.535-1.198 1.198-1.198a1.197 1.197 0 01.848 2.046 1.196 1.196 0 01-.848.35z"/></symbol><symbol viewBox="0 0 16 16" id="phone" xmlns="http://www.w3.org/2000/svg"><path d="M15.544 12.569l-3.613-3.285a.89.89 0 00-1.236.038l-2.128 2.187c-.512-.098-1.541-.418-2.6-1.475-1.06-1.06-1.381-2.093-1.476-2.601l2.186-2.128a.889.889 0 00.038-1.237L3.43.456A.889.889 0 002.194.379L.265 2.033a.889.889 0 00-.258.577c-.013.222-.267 5.486 3.815 9.57 3.56 3.56 8.02 3.82 9.25 3.82.179 0 .29-.005.319-.007a.882.882 0 00.575-.259l1.654-1.93a.886.886 0 00-.076-1.235z"/></symbol><symbol viewBox="0 0 250 250" id="symbol" xmlns="http://www.w3.org/2000/svg"><path d="M233.405 135.998a120.53 120.53 0 0115.723-48.775 118.601 118.601 0 01-40.022-31.752A120.385 120.385 0 01185.95 9.564a118.044 118.044 0 01-50.695 5.93A117.195 117.195 0 0186.752 0a119.385 119.385 0 01-31.637 40.168 119.623 119.623 0 01-45.454 23.24 120.532 120.532 0 016.051 50.823 120.432 120.432 0 01-15.58 48.738 120.035 120.035 0 0140.022 31.847 119.04 119.04 0 0123.156 45.62A118.34 118.34 0 01162.508 250a119.765 119.765 0 0131.638-40.164 119.25 119.25 0 0145.453-23.245 120.831 120.831 0 01-6.194-50.593zm-108.918-4.59a6.28 6.28 0 01-4.386-1.882 6.332 6.332 0 01-1.808-4.43 6.23 6.23 0 011.814-4.396 6.183 6.183 0 014.38-1.821c1.643 0 3.218.655 4.38 1.821a6.23 6.23 0 011.814 4.396 6.327 6.327 0 01-1.808 4.43 6.277 6.277 0 01-4.386 1.882z"/></symbol></svg>