<?xml version="1.0" encoding="utf-8"?><svg xmlns="http://www.w3.org/2000/svg" xmlns:xlink="http://www.w3.org/1999/xlink"><symbol viewBox="0 0 20 20" id="facebook" xmlns="http://www.w3.org/2000/svg"><path d="M7.481 20v-9.385H5V7.237h2.481V4.35C7.481 2.083 8.947 0 12.325 0c1.367 0 2.379.131 2.379.131l-.08 3.155s-1.031-.01-2.157-.01c-1.218 0-1.413.562-1.413 1.493v2.468h3.667l-.16 3.378h-3.507V20H7.481z"/></symbol><symbol viewBox="0 0 20 20" id="instagram" xmlns="http://www.w3.org/2000/svg"><path d="M9.997 6.665A3.342 3.342 0 006.663 10a3.342 3.342 0 003.334 3.335A3.342 3.342 0 0013.332 10a3.342 3.342 0 00-3.335-3.335zM20 10c0-1.38.012-2.75-.065-4.128-.078-1.6-.443-3.022-1.614-4.193C17.147.506 15.73.143 14.127.066 12.747-.012 11.378 0 10 0 8.619 0 7.25-.012 5.872.066 4.271.143 2.85.509 1.68 1.679.506 2.853.143 4.271.066 5.872-.012 7.253 0 8.622 0 10c0 1.378-.013 2.75.065 4.128.077 1.6.443 3.022 1.613 4.193 1.174 1.173 2.592 1.536 4.193 1.613C7.253 20.012 8.622 20 10 20c1.38 0 2.75.013 4.127-.065 1.602-.077 3.022-.443 4.193-1.613 1.174-1.174 1.536-2.592 1.614-4.193.08-1.379.065-2.747.065-4.128zM9.997 15.131A5.124 5.124 0 014.867 10a5.124 5.124 0 015.13-5.131c2.84 0 5.131 2.292 5.131 5.131a5.124 5.124 0 01-5.13 5.131zm5.341-9.274A1.197 1.197 0 0114.14 4.66c0-.663.535-1.198 1.198-1.198a1.197 1.197 0 01.848 2.046 1.196 1.196 0 01-.848.35z"/></symbol><symbol viewBox="0 0 16 16" id="phone" xmlns="http://www.w3.org/2000/svg"><path d="M15.544 12.569l-3.613-3.285a.89.89 0 00-1.236.038l-2.128 2.187c-.512-.098-1.541-.418-2.6-1.475-1.06-1.06-1.381-2.093-1.476-2.601l2.186-2.128a.889.889 0 00.038-1.237L3.43.456A.889.889 0 002.194.379L.265 2.033a.889.889 0 00-.258.577c-.013.222-.267 5.486 3.815 9.57 3.56 3.56 8.02 3.82 9.25 3.82.179 0 .29-.005.319-.007a.882.882 0 00.575-.259l1.654-1.93a.886.886 0 00-.076-1.235z"/></symbol></svg>