<?xml version="1.0" encoding="utf-8"?><svg xmlns="http://www.w3.org/2000/svg" xmlns:xlink="http://www.w3.org/1999/xlink"><symbol viewBox="0 0 16 16" id="arrow-corner" xmlns="http://www.w3.org/2000/svg"><g clip-path="url(#aclip0_308_8713)"><path d="M12.797 1.735l-1.28 1.28a.363.363 0 00-.105.278l.505 7.423L3.07 1.868a.179.179 0 00-.252.001l-.948.948a.179.179 0 000 .252l8.847 8.848-7.423-.505a.355.355 0 00-.278.105l-1.28 1.28a.177.177 0 00.113.302l11.255.765a.715.715 0 00.763-.763l-.767-11.253a.177.177 0 00-.302-.113z"/></g><defs><clipPath id="aclip0_308_8713"><path d="M0 0h16v16H0z"/></clipPath></defs></symbol><symbol viewBox="0 0 118 125" id="dollar" xmlns="http://www.w3.org/2000/svg"><g clip-path="url(#bclip0_516_9642)"><path d="M117.536 27.122c-6.854-6.413-14.448-12.39-23.397-15.504C85.453 8.717 75.424 8.48 67.391 13.2a22.62 22.62 0 00-8.585 8.444 22.387 22.387 0 00-3 11.617c.401 9.365 5.347 17.982 11.02 25.204 11.41 14.533 29.987 26.985 31.568 46.922.352 4.346 0 9.85-2.874 13.412-2.674 3.312-7.268 3.611-11.184 2.938a56.248 56.248 0 01-13.418-4.619c-4.67-2.105-9.188-4.533-13.631-7.074A307.083 307.083 0 018.096 75.177c-1.82-1.607-3.678-3.238-5.485-4.894-1.431-1.245-3.565.81-2.134 2.117a312.29 312.29 0 0047.697 35.776 168.848 168.848 0 0026.924 13.923c7.142 2.739 17.485 5.529 22.97-1.731 2.661-3.512 3.439-8.356 3.439-12.64a36.103 36.103 0 00-2.787-13.474c-3.577-8.89-9.84-16.188-16.317-23.112C75.926 64.22 69.035 57.57 64.165 49.35c-4.531-7.745-7.82-17.92-2.824-26.15 4.632-7.671 13.581-11.12 22.317-10.623 10.042.585 18.991 5.803 26.51 12.054 1.795 1.495 3.527 3.064 5.234 4.658 1.418 1.32 3.552-.797 2.134-2.117v-.05z"/><path d="M100.415 6.077c-8.787 15.653-18.702 30.621-28.87 45.44-9.451 14.034-18.827 28.18-29.471 41.492a283.27 283.27 0 01-9.063 10.759 167.194 167.194 0 01-5.02 5.355 144.56 144.56 0 01-2.373 2.403c-.389.399-.79.797-1.255 1.246l-.816.784a2.25 2.25 0 00-.715 2.254c.367-.121.673-.377.855-.715.182-.338.226-.733.122-1.102a1.495 1.495 0 00-.677-.883 1.516 1.516 0 00-1.104-.176 2.158 2.158 0 00-1.452 1.296 2.127 2.127 0 00.197 1.929c1.117 1.855 3.289.934 4.557-.187a128.945 128.945 0 009.815-10.124c6.276-6.936 11.975-14.283 17.485-21.805 11.46-15.553 22.342-31.742 32.949-47.93C91.69 26.773 97.59 17.297 103.05 7.57c.941-1.693-1.657-3.2-2.599-1.519l-.037.025zM112.05.772A1459.27 1459.27 0 0165.734 93.16 1382.09 1382.09 0 0151.35 118.86a1.494 1.494 0 00.552 2.055 1.524 1.524 0 002.071-.548 1450.696 1450.696 0 0048.187-91.44c4.259-8.842 8.443-17.72 12.551-26.637.766-1.743-1.857-3.262-2.661-1.519z"/></g><defs><clipPath id="bclip0_516_9642"><path d="M0 0h118v125H0z"/></clipPath></defs></symbol><symbol viewBox="0 0 146 125" id="euro" xmlns="http://www.w3.org/2000/svg"><g clip-path="url(#cclip0_516_9649)"><path d="M83.269.585c-16.617-2.86-33.56 4.913-44.14 17.757-11.827 14.429-14.774 34.11-11.762 52.14 3.012 18.03 12.1 36.111 27.95 46.003 16.54 10.4 37.416 10.842 55.293 3.744 15.67-6.226 31.612-18.771 34.793-36.293.373-2.046.56-4.122.558-6.201a1.561 1.561 0 00-1.558-1.56 1.558 1.558 0 00-1.558 1.56c0 16.899-13.787 30.145-27.99 37.19-16.358 8.125-36.09 9.737-52.825 1.716-16.008-7.695-25.77-23.23-30.132-40.076-4.362-16.847-3.337-35.93 5.946-51.048C46.984 10.75 64.912.585 82.438 3.601c1.947.299 2.804-2.665.831-3.016z"/><path d="M1.921 83.48A906.466 906.466 0 0063.614 62.5a823.043 823.043 0 0017.292-6.825c1.83-.74 1.039-3.757-.83-3.003a840.95 840.95 0 01-61.239 22.294A839.99 839.99 0 011.09 80.465 1.562 1.562 0 000 82.388a1.564 1.564 0 001.921 1.092zM16.098 111.624A516.578 516.578 0 0082.996 89.85a531.11 531.11 0 0018.267-7.721c1.83-.82.246-3.51-1.571-2.704A515.227 515.227 0 0134.26 103.46a645.628 645.628 0 01-18.994 5.2 1.559 1.559 0 00.831 3.003v-.039z"/></g><defs><clipPath id="cclip0_516_9649"><path d="M0 0h146v125H0z"/></clipPath></defs></symbol><symbol viewBox="0 0 20 20" id="facebook" xmlns="http://www.w3.org/2000/svg"><path d="M7.481 20v-9.385H5V7.237h2.481V4.35C7.481 2.083 8.947 0 12.325 0c1.367 0 2.379.131 2.379.131l-.08 3.155s-1.031-.01-2.157-.01c-1.218 0-1.413.562-1.413 1.493v2.468h3.667l-.16 3.378h-3.507V20H7.481z"/></symbol><symbol viewBox="0 0 280 224" id="heart" xmlns="http://www.w3.org/2000/svg"><g clip-path="url(#eclip0_360_99335)"><path d="M157.418 58.613a111.66 111.66 0 00-59.957-44.497C84.968 10.257 71.288 8.29 58.256 9.769a47.652 47.652 0 00-20.153 6.728 76.476 76.476 0 00-15.515 13.7C13.056 40.676 5.09 52.728 1.872 66.673-1.432 80.96-.159 96.04 4.112 109.973c4.27 13.933 11.453 26.95 19.736 38.953a189.182 189.182 0 0027.287 31.798c20.912 19.269 47.513 32.97 76.243 34.801 3.573.218 7.156.247 10.732.086 1.872-.086 1.884-3.016 0-2.931-28.144 1.221-55.43-9.866-77.088-27.292a171.938 171.938 0 01-28.241-29.172 169.984 169.984 0 01-21.573-35.51C5.531 107.653 2.264 93.451 3.06 79.189a66.884 66.884 0 014.442-20.76 77.074 77.074 0 0110.193-17.742 112.783 112.783 0 0113.68-15.24 47.357 47.357 0 0117.669-10.794c12.554-3.932 26.797-2.735 39.461.098A109.469 109.469 0 01149.6 52.776c1.872 2.345 3.671 4.787 5.286 7.327 1.04 1.563 3.586.097 2.533-1.478v-.012z"/><path d="M149.477 52.971c9.544-11.429 15.907-25.264 26.173-36.108A46.09 46.09 0 01192.267 5.13a37.796 37.796 0 0121.584-1.124c13.13 2.894 25.354 10.38 35.13 19.452A89.044 89.044 0 01270.7 54.583c10.45 25.35 7.758 55.146-6.534 78.493-12.897 21.04-34.261 34.448-55.576 45.755-21.316 11.308-44.05 21.345-63.016 36.914a118.04 118.04 0 00-6.535 5.776c-1.37 1.294.71 3.37 2.081 2.064 18.354-17.389 41.664-28.086 63.86-39.552 21.695-11.246 43.585-23.934 58.146-44.106a90.96 90.96 0 0015.733-38.568 90.879 90.879 0 00-3.117-41.525c-8.125-24.862-27.519-46.194-51.992-55.817A50.746 50.746 0 00201.383.122a38.582 38.582 0 00-19.493 7.327c-12.101 8.706-19.296 21.87-27.47 33.946a115.392 115.392 0 01-7.023 9.464c-1.224 1.44.869 3.517 2.08 2.076v.036z"/></g><defs><clipPath id="eclip0_360_99335"><path d="M0 0h280v224H0z"/></clipPath></defs></symbol><symbol viewBox="0 0 82 125" id="hryvna" xmlns="http://www.w3.org/2000/svg"><g clip-path="url(#fclip0_516_9656)"><path d="M2.537 23.369c1.284-4.217 5.126-7.028 8.411-9.657a68.17 68.17 0 0111.527-7.79C30.18 1.964 38.87 1.17 46.555 5.59a23.25 23.25 0 018.572 8.324 23.327 23.327 0 013.318 11.494c.107 8.927-4.42 17.414-10.167 23.97-6.283 7.178-14.298 12.542-21.854 18.24C19.446 72.96 11.59 78.755 7.909 86.985c-3.575 7.983-1.905 17.167 3.286 24.099 5.35 7.113 13.795 11.33 22.367 13.1 9.44 1.932 18.857.494 26.841-5.032 7.695-5.365 13.153-13.036 17.84-21.008 1.22-2.071 2.398-4.163 3.575-6.256a1.29 1.29 0 00-.488-1.712 1.282 1.282 0 00-1.727.414c-4.72 8.39-9.546 16.996-16.824 23.444a34.38 34.38 0 01-11.409 6.899 31.477 31.477 0 01-14.908 1.159c-8.84-1.32-18.054-5.365-23.427-12.875a23.216 23.216 0 01-4.473-12.082 20.209 20.209 0 013.532-12.371 47.53 47.53 0 019.439-9.957c3.692-3.123 7.598-5.966 11.473-8.841 7.491-5.548 14.983-11.288 20.42-18.927 4.986-6.964 8.433-15.634 7.405-24.335a25.932 25.932 0 00-4-10.9 25.854 25.854 0 00-8.35-8.049 26.075 26.075 0 00-23.545-1.749 52.405 52.405 0 00-11.772 6.75c-3.521 2.607-7.342 5.364-10.178 8.712a14.658 14.658 0 00-2.922 5.214c-.481 1.588 1.99 2.264 2.473.687z"/><path d="M14.47 57.49a648.463 648.463 0 0049.99-9.668c1.615-.386.93-2.865-.675-2.49a618.954 618.954 0 01-50 9.657c-1.638.247-.942 2.726.684 2.479v.021zM13.453 72.714c8.059 1.567 16.32-.129 24.262-1.61a298.885 298.885 0 0024.615-5.632 1.287 1.287 0 00.935-1.086 1.295 1.295 0 00-.642-1.282 1.286 1.286 0 00-.978-.121 292.097 292.097 0 01-23.545 5.45c-7.76 1.47-16.053 3.337-23.92 1.792-1.615-.311-2.3 2.146-.684 2.49h-.043z"/></g><defs><clipPath id="fclip0_516_9656"><path d="M0 0h82v125H0z"/></clipPath></defs></symbol><symbol viewBox="0 0 20 20" id="instagram" xmlns="http://www.w3.org/2000/svg"><path d="M9.997 6.665A3.342 3.342 0 006.663 10a3.342 3.342 0 003.334 3.335A3.342 3.342 0 0013.332 10a3.342 3.342 0 00-3.335-3.335zM20 10c0-1.38.012-2.75-.065-4.128-.078-1.6-.443-3.022-1.614-4.193C17.147.506 15.73.143 14.127.066 12.747-.012 11.378 0 10 0 8.619 0 7.25-.012 5.872.066 4.271.143 2.85.509 1.68 1.679.506 2.853.143 4.271.066 5.872-.012 7.253 0 8.622 0 10c0 1.378-.013 2.75.065 4.128.077 1.6.443 3.022 1.613 4.193 1.174 1.173 2.592 1.536 4.193 1.613C7.253 20.012 8.622 20 10 20c1.38 0 2.75.013 4.127-.065 1.602-.077 3.022-.443 4.193-1.613 1.174-1.174 1.536-2.592 1.614-4.193.08-1.379.065-2.747.065-4.128zM9.997 15.131A5.124 5.124 0 014.867 10a5.124 5.124 0 015.13-5.131c2.84 0 5.131 2.292 5.131 5.131a5.124 5.124 0 01-5.13 5.131zm5.341-9.274A1.197 1.197 0 0114.14 4.66c0-.663.535-1.198 1.198-1.198a1.197 1.197 0 01.848 2.046 1.196 1.196 0 01-.848.35z"/></symbol><symbol viewBox="0 0 16 16" id="phone" xmlns="http://www.w3.org/2000/svg"><path d="M15.544 12.569l-3.613-3.285a.89.89 0 00-1.236.038l-2.128 2.187c-.512-.098-1.541-.418-2.6-1.475-1.06-1.06-1.381-2.093-1.476-2.601l2.186-2.128a.889.889 0 00.038-1.237L3.43.456A.889.889 0 002.194.379L.265 2.033a.889.889 0 00-.258.577c-.013.222-.267 5.486 3.815 9.57 3.56 3.56 8.02 3.82 9.25 3.82.179 0 .29-.005.319-.007a.882.882 0 00.575-.259l1.654-1.93a.886.886 0 00-.076-1.235z"/></symbol><symbol viewBox="0 0 250 250" id="symbol" xmlns="http://www.w3.org/2000/svg"><path d="M233.405 135.998a120.53 120.53 0 0115.723-48.775 118.601 118.601 0 01-40.022-31.752A120.385 120.385 0 01185.95 9.564a118.044 118.044 0 01-50.695 5.93A117.195 117.195 0 0186.752 0a119.385 119.385 0 01-31.637 40.168 119.623 119.623 0 01-45.454 23.24 120.532 120.532 0 016.051 50.823 120.432 120.432 0 01-15.58 48.738 120.035 120.035 0 0140.022 31.847 119.04 119.04 0 0123.156 45.62A118.34 118.34 0 01162.508 250a119.765 119.765 0 0131.638-40.164 119.25 119.25 0 0145.453-23.245 120.831 120.831 0 01-6.194-50.593zm-108.918-4.59a6.28 6.28 0 01-4.386-1.882 6.332 6.332 0 01-1.808-4.43 6.23 6.23 0 011.814-4.396 6.183 6.183 0 014.38-1.821c1.643 0 3.218.655 4.38 1.821a6.23 6.23 0 011.814 4.396 6.327 6.327 0 01-1.808 4.43 6.277 6.277 0 01-4.386 1.882z"/></symbol></svg>