<svg width="175" height="180" viewBox="0 0 175 180" fill="none" xmlns="http://www.w3.org/2000/svg">
<g clip-path="url(#clip0_274_9179)">
<path d="M11.1712 83.4332H35.6732H47.9243C51.864 83.4332 55.8558 83.6662 59.7881 83.3437C66.8929 82.7613 73.3498 77.7175 78.8833 72.6558C84.2312 67.6989 89.0623 61.9837 93.2718 55.6341C102.656 41.6494 109.112 25.4699 115.219 9.19175C115.794 7.36134 116.664 5.68645 117.781 4.26441C118.848 3.09246 120.201 2.36657 121.639 2.19493C124.654 1.93604 127.642 3.02375 130.032 5.24988C134.992 9.54114 137.785 16.8963 138.403 24.0633C139.967 42.1063 129.585 57.4617 121.498 71.321C120.44 73.1127 119.397 74.9851 118.392 76.8575C117.766 78.0221 119.308 79.0972 119.934 77.9415C128.007 62.9803 139.141 48.691 140.258 30.0209C140.705 22.5851 139.178 14.791 135.424 8.72589C131.961 3.17144 125.899 -1.59464 119.904 0.510679C116.716 1.62157 114.974 4.70339 113.67 8.1794C112.077 12.4348 110.49 16.6903 108.807 20.9009C105.525 29.2703 101.76 37.3529 97.5391 45.0896C93.6199 52.2272 89.0512 58.8168 83.9178 64.7362C78.8312 70.5415 72.9849 75.881 66.5057 79.2584C62.7224 81.2473 58.8348 81.3548 54.7983 81.3548H42.361H17.3004H11.1712C10.9341 81.3548 10.7068 81.4681 10.5392 81.6697C10.3716 81.8713 10.2775 82.1447 10.2775 82.4299C10.2775 82.715 10.3716 82.9884 10.5392 83.19C10.7068 83.3916 10.9341 83.5049 11.1712 83.5049V83.4332Z" fill="#FFC640"/>
<path d="M118.414 78.8373C119.844 84.8397 125.556 85.3235 129.869 85.1085C135.558 84.8666 141.248 84.5978 146.931 84.347C149.701 84.2216 152.464 84.0782 155.234 83.9797C157.52 83.8272 159.813 83.9171 162.086 84.2484C166.1 84.9472 169.973 87.2227 171.515 91.9978C173.004 96.6205 172.259 102.256 169.191 105.687C169.025 105.89 168.931 106.163 168.931 106.448C168.931 106.733 169.025 107.007 169.191 107.21C174.501 113.257 174.531 124.464 169.236 130.503C168.402 131.461 169.668 132.984 170.502 132.026C176.46 125.163 176.46 112.487 170.45 105.651V107.174C171.809 105.576 172.833 103.611 173.437 101.443C174.04 99.2743 174.206 96.9641 173.92 94.7033C173.686 92.3886 172.971 90.1822 171.84 88.2888C170.708 86.3954 169.198 84.8763 167.448 83.8722C163.27 81.4802 158.511 81.6414 153.983 81.8475L136.176 82.6448C133.049 82.7792 129.854 83.1465 126.726 82.9584C124.074 82.7971 120.954 81.6235 120.135 78.2012C120.065 77.9268 119.907 77.6971 119.696 77.5627C119.485 77.4283 119.238 77.4002 119.01 77.4845C118.782 77.5689 118.591 77.7588 118.479 78.0125C118.368 78.2662 118.344 78.5629 118.414 78.8373Z" fill="#FFC640"/>
<path d="M168.915 132.205C169.92 135.172 170.294 138.394 170.003 141.579C169.712 144.764 168.765 147.811 167.247 150.445C166.483 151.619 165.955 152.989 165.706 154.449C165.519 156.107 166.1 157.648 166.331 159.26C166.686 161.982 166.37 164.77 165.423 167.278C164.36 170.182 162.526 172.58 160.209 174.096C159.196 174.75 160.098 176.605 161.11 175.951C163.246 174.529 165.031 172.455 166.288 169.939C167.544 167.422 168.227 164.552 168.267 161.616C168.272 160.121 168.107 158.632 167.776 157.191C167.501 156.289 167.419 155.319 167.538 154.369C167.738 153.563 168.053 152.806 168.469 152.129C170.1 149.351 171.206 146.177 171.708 142.83C172.204 139.054 171.839 135.186 170.651 131.64C170.219 130.377 168.491 130.924 168.923 132.205H168.915Z" fill="#FFC640"/>
<path d="M160.381 173.926C146.597 179.398 131.682 179.114 118.049 173.12C114.213 171.423 110.523 169.277 107.035 166.714C106.052 165.988 105.15 167.852 106.133 168.569C118.88 177.825 133.852 181.629 148.621 179.364C152.784 178.727 156.884 177.602 160.865 176.004C161.952 175.565 161.483 173.487 160.388 173.926H160.381Z" fill="#FFC640"/>
<path d="M105.642 165.361C92.4794 161.539 79.1034 158.872 65.6196 157.379C51.886 156 38.0971 155.587 24.3235 156.143C16.5037 156.385 8.68389 156.797 0.864073 157.209C-0.282833 157.271 -0.29028 159.422 0.864073 159.359C14.6493 158.633 28.4196 157.908 42.2495 158.123C55.8639 158.3 69.4503 159.647 82.9051 162.154C90.3823 163.563 97.8025 165.355 105.166 167.529C106.283 167.852 106.759 165.737 105.642 165.451V165.361Z" fill="#FFC640"/>
</g>
<defs>
<clipPath id="clip0_274_9179">
<rect width="175" height="180" fill="white"/>
</clipPath>
</defs>
</svg>
